<svg width="20" height="24" viewBox="0 0 20 24" version="1.1" xmlns="http://www.w3.org/2000/svg" xmlns:xlink="http://www.w3.org/1999/xlink">
<title>accessible</title>
<desc>Created using Figma</desc>
<g id="Canvas" transform="translate(-402 -16)">
<g id="accessible">
<g id="Union">
<use xlink:href="#path0_fill" transform="translate(402.75 16)"/>
<use xlink:href="#path1_fill" transform="translate(402.75 16)"/>
</g>
</g>
</g>
<defs>
<path id="path0_fill" d="M 6.90607 5.92804C 8.24738 5.62882 9.25 4.4315 9.25 3C 9.25 1.34315 7.90686 0 6.25 0C 4.59314 0 3.25 1.34315 3.25 3C 3.25 4.10089 3.84296 5.06328 4.72696 5.5852L 5.92624 9.76422L 6.8873 13.1131L 7.09509 13.8372L 7.84848 13.8372L 12.7348 13.8372L 14.7487 19.8524L 15.0284 20.6876L 15.8923 20.5156L 18.6953 19.9575L 18.3047 17.996L 16.3656 18.3821L 14.4028 12.5197L 14.1743 11.8372L 13.4546 11.8372L 8.60187 11.8372L 8.21478 10.4884L 12.3333 10.4884L 12.3333 8.48837L 7.64084 8.48837L 6.90607 5.92804Z"/>
<path id="path1_fill" d="M 4.677 9.03633L 4.96503 10.0401L 5.2356 10.9828C 3.3147 11.938 2 13.9131 2 16.186C 2 19.3887 4.61014 22 7.84848 22C 10.2694 22 12.3392 20.5406 13.2299 18.4658L 13.8004 20.1699L 14.0642 20.9576C 12.6289 22.8081 10.3785 24 7.84848 24C 3.51389 24 0 20.5016 0 16.186C 0 12.9942 1.92221 10.2494 4.677 9.03633Z"/>
</defs>
</svg>
