<svg width="24" height="24" viewBox="0 0 24 24" version="1.1" xmlns="http://www.w3.org/2000/svg" xmlns:xlink="http://www.w3.org/1999/xlink">
<title>alarm</title>
<desc>Created using Figma</desc>
<g id="Canvas" transform="translate(-432 -16)">
<g id="alarm">
<g id="Union">
<use xlink:href="#path0_fill" transform="translate(432.327 16.0997)"/>
<use xlink:href="#path1_fill" transform="translate(432.327 16.0997)"/>
<use xlink:href="#path2_fill" transform="translate(432.327 16.0997)"/>
<use xlink:href="#path3_fill" transform="translate(432.327 16.0997)"/>
</g>
</g>
</g>
<defs>
<path id="path0_fill" d="M 6.17593 1.80058C 4.32523 2.68743 2.81433 3.93537 1.59625 5.56029L 0 4.3553C 1.36963 2.5523 3.24548 1.00392 5.30536 0L 6.17593 1.80058Z"/>
<path id="path1_fill" d="M 21.75 5.56029C 20.5319 3.93537 19.021 2.68743 17.1703 1.80058L 18.0409 0C 20.1007 1.00392 21.9766 2.5523 23.3463 4.3553L 21.75 5.56029Z"/>
<path id="path2_fill" d="M 10.6731 6.31205L 10.6731 13.0768L 10.6731 13.7374L 11.2808 13.9966L 16.0386 16.026L 16.8233 14.1864L 12.6731 12.4161L 12.6731 6.31205L 10.6731 6.31205Z"/>
<path id="path3_fill" fill-rule="evenodd" d="M 11.6731 23.9003C 17.6792 23.9003 22.5481 19.0544 22.5481 13.0768C 22.5481 7.09909 17.6792 2.25323 11.6731 2.25323C 5.66702 2.25323 0.798126 7.09909 0.798126 13.0768C 0.798126 19.0544 5.66702 23.9003 11.6731 23.9003ZM 11.6731 21.9003C 16.5836 21.9003 20.5481 17.9409 20.5481 13.0768C 20.5481 8.21259 16.5836 4.25323 11.6731 4.25323C 6.76263 4.25323 2.79813 8.21259 2.79813 13.0768C 2.79813 17.9409 6.76263 21.9003 11.6731 21.9003Z"/>
</defs>
</svg>
