<svg width="14" height="23" viewBox="0 0 14 23" version="1.1" xmlns="http://www.w3.org/2000/svg" xmlns:xlink="http://www.w3.org/1999/xlink">
<title>bookmark</title>
<desc>Created using Figma</desc>
<g id="Canvas" transform="translate(-469 -16)">
<g id="bookmark">
<g id="Vector 3 (Stroke)">
<use xlink:href="#path0_fill" transform="translate(469 16)"/>
</g>
</g>
</g>
<defs>
<path id="path0_fill" fill-rule="evenodd" d="M 0 0L 1 0L 13 0L 14 0L 14 1L 14 22C 14 22.3581 13.8086 22.6888 13.4981 22.8671C 13.1876 23.0455 12.8054 23.0442 12.4961 22.8638L 7 19.6577L 1.50387 22.8638C 1.19458 23.0442 0.812433 23.0455 0.501939 22.8671C 0.191446 22.6888 0 22.3581 0 22L 0 1L 0 0ZM 2 2L 2 20.259L 6.49613 17.6362L 7 17.3423L 7.50387 17.6362L 12 20.259L 12 2L 2 2Z"/>
</defs>
</svg>
