<svg width="24" height="22" viewBox="0 0 24 22" version="1.1" xmlns="http://www.w3.org/2000/svg" xmlns:xlink="http://www.w3.org/1999/xlink">
<title>bug</title>
<desc>Created using Figma</desc>
<g id="Canvas" transform="translate(-400 -49)">
<g id="bug">
<g id="Union">
<use xlink:href="#path0_fill" transform="translate(400 49)"/>
<use xlink:href="#path1_fill" transform="translate(400 49)"/>
</g>
</g>
</g>
<defs>
<path id="path0_fill" d="M 12 2C 10.1975 2 8.67352 3.1922 8.17349 4.83107C 7.38397 5.19265 6.65445 5.66267 6.00403 6.22208C 6.00134 6.14839 6 6.07435 6 6C 6 2.68629 8.68628 0 12 0C 15.3137 0 18 2.68629 18 6C 18 6.07435 17.9987 6.14839 17.996 6.22209C 17.3456 5.66268 16.616 5.19265 15.8265 4.83107C 15.3265 3.1922 13.8025 2 12 2Z"/>
<path id="path1_fill" fill-rule="evenodd" d="M 5.39227 8.34334C 6.88513 6.31566 9.28891 5 12 5C 14.7111 5 17.1149 6.31567 18.6077 8.34335L 20.8908 7.5823L 21.9056 5.55279L 23.6944 6.44722L 22.4944 8.84721L 22.3092 9.2177L 21.9162 9.34869L 19.602 10.1201C 19.8678 10.7755 20.0512 11.4731 20.1396 12.2L 24 12.2L 24 14.2L 20.1396 14.2C 20.0512 14.9269 19.8678 15.6245 19.602 16.2799L 21.9162 17.0513L 22.3092 17.1823L 22.4944 17.5528L 23.6944 19.9528L 21.9056 20.8472L 20.8908 18.8177L 18.6077 18.0567C 17.1149 20.0843 14.7111 21.4 12 21.4C 9.28891 21.4 6.88513 20.0843 5.39227 18.0567L 3.10919 18.8177L 2.09442 20.8472L 0.305573 19.9528L 1.50558 17.5528L 1.69083 17.1823L 2.08377 17.0513L 4.39804 16.2799C 4.13223 15.6245 3.94873 14.9269 3.86035 14.2L 0 14.2L 0 12.2L 3.86035 12.2C 3.94873 11.4731 4.13223 10.7755 4.39804 10.1201L 2.08377 9.34869L 1.69083 9.2177L 1.50558 8.84721L 0.305573 6.44722L 2.09442 5.55279L 3.10919 7.5823L 5.39227 8.34334ZM 12 7C 8.57584 7 5.79999 9.77583 5.79999 13.2C 5.79999 16.2837 8.0513 18.8416 11 19.3198L 11 10.8L 13 10.8L 13 19.3198C 15.9487 18.8416 18.2 16.2837 18.2 13.2C 18.2 9.77583 15.4242 7 12 7Z"/>
</defs>
</svg>
