<svg width="18" height="24" viewBox="0 0 18 24" version="1.1" xmlns="http://www.w3.org/2000/svg" xmlns:xlink="http://www.w3.org/1999/xlink">
<title>copy</title>
<desc>Created using Figma</desc>
<g id="Canvas" transform="translate(-307 -208)">
<g id="copy">
<g id="Vector 30">
<use xlink:href="#path0_stroke" transform="translate(308.36 209)"/>
</g>
</g>
</g>
<defs>
<path id="path0_stroke" d="M 3.05556 8.55556L 2.34845 7.84845C 2.16091 8.03598 2.05556 8.29034 2.05556 8.55556L 3.05556 8.55556ZM 7.94444 3.66667L 7.94444 2.66667C 7.67923 2.66667 7.42487 2.77202 7.23734 2.95956L 7.94444 3.66667ZM 14.2778 4.16667L 14.2778 21.5L 16.2778 21.5L 16.2778 4.16667L 14.2778 4.16667ZM 14.7778 21L 3.55556 21L 3.55556 23L 14.7778 23L 14.7778 21ZM 4.05556 21.5L 4.05556 8.55556L 2.05556 8.55556L 2.05556 21.5L 4.05556 21.5ZM 7.94444 4.66667L 14.7778 4.66667L 14.7778 2.66667L 7.94444 2.66667L 7.94444 4.66667ZM 3.76266 9.26266L 8.65155 4.37377L 7.23734 2.95956L 2.34845 7.84845L 3.76266 9.26266ZM 7.44444 7.55556L 3.05556 7.55556L 3.05556 9.55556L 7.44444 9.55556L 7.44444 7.55556ZM 8.94444 8.05556L 8.94444 3.66667L 6.94444 3.66667L 6.94444 8.05556L 8.94444 8.05556ZM 1 22L 1 0.5L -1 0.5L -1 22L 1 22ZM 0.5 1L 15.2778 1L 15.2778 -1L 0.5 -1L 0.5 1ZM 3.55556 21C 3.8317 21 4.05556 21.2239 4.05556 21.5L 2.05556 21.5C 2.05556 22.3284 2.72713 23 3.55556 23L 3.55556 21ZM 16.2778 4.16667C 16.2778 3.33824 15.6062 2.66667 14.7778 2.66667L 14.7778 4.66667C 14.5016 4.66667 14.2778 4.44281 14.2778 4.16667L 16.2778 4.16667ZM 14.2778 21.5C 14.2778 21.2239 14.5016 21 14.7778 21L 14.7778 23C 15.6062 23 16.2778 22.3284 16.2778 21.5L 14.2778 21.5ZM 7.44444 9.55556C 8.27287 9.55556 8.94444 8.88398 8.94444 8.05556L 6.94444 8.05556C 6.94444 7.77941 7.1683 7.55556 7.44444 7.55556L 7.44444 9.55556ZM 1 0.5C 1 0.776142 0.776142 1 0.5 1L 0.5 -1C -0.328427 -1 -1 -0.328427 -1 0.5L 1 0.5Z"/>
</defs>
</svg>
