<svg width="16" height="24" viewBox="0 0 16 24" version="1.1" xmlns="http://www.w3.org/2000/svg" xmlns:xlink="http://www.w3.org/1999/xlink">
<title>cut</title>
<desc>Created using Figma</desc>
<g id="Canvas" transform="translate(-212 -240)">
<g id="cut">
<g id="Ellipse 9">
<use xlink:href="#path0_stroke" transform="translate(213.35 257.884)"/>
</g>
<g id="Ellipse 9">
<use xlink:href="#path1_stroke" transform="translate(221.536 257.884)"/>
</g>
<g id="Vector 14">
<use xlink:href="#path2_stroke" transform="translate(214.885 241)"/>
</g>
</g>
</g>
<defs>
<path id="path0_stroke" d="M 4.11628 2.55814C 4.11628 3.41868 3.41868 4.11628 2.55814 4.11628L 2.55814 6.11628C 4.52325 6.11628 6.11628 4.52325 6.11628 2.55814L 4.11628 2.55814ZM 2.55814 4.11628C 1.6976 4.11628 1 3.41868 1 2.55814L -1 2.55814C -1 4.52325 0.593033 6.11628 2.55814 6.11628L 2.55814 4.11628ZM 1 2.55814C 1 1.6976 1.6976 1 2.55814 1L 2.55814 -1C 0.593033 -1 -1 0.593033 -1 2.55814L 1 2.55814ZM 2.55814 1C 3.41868 1 4.11628 1.6976 4.11628 2.55814L 6.11628 2.55814C 6.11628 0.593033 4.52325 -1 2.55814 -1L 2.55814 1Z"/>
<path id="path1_stroke" d="M 4.11628 2.55814C 4.11628 3.41868 3.41868 4.11628 2.55814 4.11628L 2.55814 6.11628C 4.52325 6.11628 6.11628 4.52325 6.11628 2.55814L 4.11628 2.55814ZM 2.55814 4.11628C 1.6976 4.11628 1 3.41868 1 2.55814L -1 2.55814C -1 4.52325 0.593033 6.11628 2.55814 6.11628L 2.55814 4.11628ZM 1 2.55814C 1 1.6976 1.6976 1 2.55814 1L 2.55814 -1C 0.593033 -1 -1 0.593033 -1 2.55814L 1 2.55814ZM 2.55814 1C 3.41868 1 4.11628 1.6976 4.11628 2.55814L 6.11628 2.55814C 6.11628 0.593033 4.52325 -1 2.55814 -1L 2.55814 1Z"/>
<path id="path2_stroke" d="M 3.46851 17.2975L 11.1429 0.413803L 9.32219 -0.413803L 1.64777 16.4699L 3.46851 17.2975ZM -0.910366 0.413803L 6.76405 17.2975L 8.58479 16.4699L 0.910366 -0.413803L -0.910366 0.413803Z"/>
</defs>
</svg>
