<svg width="20" height="24" viewBox="0 0 20 24" version="1.1" xmlns="http://www.w3.org/2000/svg" xmlns:xlink="http://www.w3.org/1999/xlink">
<title>delete</title>
<desc>Created using Figma</desc>
<g id="Canvas" transform="translate(-466 -48)">
<g id="delete">
<g id="Vector 6 (Stroke)">
<use xlink:href="#path0_fill" transform="translate(466.5 48)"/>
</g>
</g>
</g>
<defs>
<path id="path0_fill" fill-rule="evenodd" d="M 4 1C 4 0.447715 4.44772 0 5 0L 14 0C 14.5523 0 15 0.447715 15 1L 15 3.5L 19 3.5L 19 5.5L 14 5.5L 5 5.5L 0 5.5L 0 3.5L 4 3.5L 4 1ZM 6 3.5L 13 3.5L 13 2L 6 2L 6 3.5ZM 2.44444 23L 2.44444 6.5L 4.44444 6.5L 4.44444 22L 14.5 22L 14.5 6.5L 16.5 6.5L 16.5 23C 16.5 23.5523 16.0523 24 15.5 24L 3.44444 24C 2.89216 24 2.44444 23.5523 2.44444 23Z"/>
</defs>
</svg>
