<svg width="24" height="23" viewBox="0 0 24 23" version="1.1" xmlns="http://www.w3.org/2000/svg" xmlns:xlink="http://www.w3.org/1999/xlink">
<title>favorited</title>
<desc>Created using Figma</desc>
<g id="Canvas" transform="translate(-496 -80)">
<g id="favorited">
<g id="Union">
<use xlink:href="#path0_fill" transform="translate(496.396 80.7943)"/>
</g>
</g>
</g>
<defs>
<path id="path0_fill" d="M 12.554 2.89373L 11.6039 0L 10.6537 2.89373L 9.09897 7.62907C 8.9642 8.0396 8.58096 8.31713 8.1489 8.31713L 3.10385 8.31713L 0 8.31713L 2.52008 10.1291L 6.58356 13.0507C 6.93771 13.3053 7.08597 13.7601 6.94989 14.1746L 5.40045 18.8937L 4.44345 21.8085L 6.93433 20.0176L 11.0201 17.08C 11.3689 16.8292 11.8388 16.8292 12.1876 17.08L 16.2733 20.0176L 18.7643 21.8085L 17.8072 18.8937L 16.2578 14.1746C 16.1217 13.7601 16.27 13.3053 16.6241 13.0507L 20.6876 10.1291L 23.2077 8.31713L 20.1039 8.31713L 15.0588 8.31713C 14.6267 8.31713 14.2435 8.0396 14.1087 7.62907L 12.554 2.89373Z"/>
</defs>
</svg>
