<svg width="24" height="23" viewBox="0 0 24 23" version="1.1" xmlns="http://www.w3.org/2000/svg" xmlns:xlink="http://www.w3.org/1999/xlink">
<title>favorite</title>
<desc>Created using Figma</desc>
<g id="Canvas" transform="translate(-464 -80)">
<g id="favorite">
<g id="Union">
<use xlink:href="#path0_fill" transform="translate(464.396 80.7943)"/>
</g>
</g>
</g>
<defs>
<path id="path0_fill" fill-rule="evenodd" d="M 12.554 2.89373L 11.6039 0L 10.6537 2.89373L 9.09897 7.62907C 8.9642 8.0396 8.58096 8.31713 8.1489 8.31713L 3.10385 8.31713L 0 8.31713L 2.52008 10.1291L 6.58356 13.0507C 6.93771 13.3053 7.08597 13.7601 6.94989 14.1746L 5.40045 18.8937L 4.44345 21.8085L 6.93433 20.0176L 11.0201 17.08L 11.0222 17.0784C 11.3701 16.8297 11.8376 16.8297 12.1855 17.0784L 12.1876 17.08L 16.2734 20.0176L 18.7643 21.8085L 17.8072 18.8937L 16.2578 14.1746C 16.1217 13.7601 16.27 13.3053 16.6241 13.0507L 20.6876 10.1291L 23.2077 8.31713L 20.1039 8.31713L 15.0588 8.31713C 14.6283 8.31713 14.2462 8.04159 14.1102 7.63348L 14.1087 7.62907L 12.554 2.89373ZM 10.9992 8.25298L 11.6039 6.41135L 12.2085 8.25298L 12.2102 8.25818L 12.6603 9.62907C 12.7951 10.0396 13.1783 10.3171 13.6104 10.3171L 15.0588 10.3171L 17 10.3171L 15.4566 11.4268L 15.4535 11.4291L 14.2668 12.2823C 13.9126 12.5369 13.7644 12.9917 13.9005 13.4062L 14.3558 14.7929L 14.3576 14.7984L 14.95 16.6028L 13.3551 15.4561L 12.1876 14.6167C 11.8388 14.3659 11.3689 14.3659 11.0201 14.6167L 9.85593 15.4537L 9.85254 15.4561L 8.25766 16.6028L 8.8501 14.7984L 8.8519 14.7929L 9.30722 13.4062C 9.4433 12.9917 9.29504 12.5369 8.94089 12.2823L 7.75424 11.4291L 7.7511 11.4268L 6.20767 10.3171L 8.1489 10.3171L 9.59726 10.3171C 10.0294 10.3171 10.4126 10.0396 10.5474 9.62907L 10.9992 8.25298Z"/>
</defs>
</svg>
