<svg width="24" height="24" viewBox="0 0 24 24" version="1.1" xmlns="http://www.w3.org/2000/svg" xmlns:xlink="http://www.w3.org/1999/xlink">
<title>info</title>
<desc>Created using Figma</desc>
<g id="Canvas" transform="translate(-432 -112)">
<g id="info">
<g id="Union">
<use xlink:href="#path0_fill" transform="translate(432 112)"/>
<use xlink:href="#path1_fill" transform="translate(432 112)"/>
<use xlink:href="#path2_fill" transform="translate(432 112)"/>
</g>
</g>
</g>
<defs>
<path id="path0_fill" d="M 11.25 6.75L 11.25 8.5L 13 8.5L 13 6.75L 11.25 6.75Z"/>
<path id="path1_fill" d="M 9.75 17.25L 9.75 16L 11.25 16L 11.25 11L 9.75 11L 9.75 9.75L 13 9.75L 13 16L 14.25 16L 14.25 17.25L 9.75 17.25Z"/>
<path id="path2_fill" fill-rule="evenodd" d="M 24 12C 24 18.6274 18.6274 24 12 24C 5.37259 24 0 18.6274 0 12C 0 5.37258 5.37259 0 12 0C 18.6274 0 24 5.37258 24 12ZM 22 12C 22 17.5228 17.5229 22 12 22C 6.47714 22 2 17.5228 2 12C 2 6.47715 6.47714 2 12 2C 17.5229 2 22 6.47715 22 12Z"/>
</defs>
</svg>
