<svg width="26" height="24" viewBox="0 0 26 24" version="1.1" xmlns="http://www.w3.org/2000/svg" xmlns:xlink="http://www.w3.org/1999/xlink">
<title>invisible</title>
<desc>Created using Figma</desc>
<g id="Canvas" transform="translate(-463 -80)">
<g id="invisible">
<g id="Union">
<use xlink:href="#path0_fill" transform="translate(463.988 80.2929)"/>
<use xlink:href="#path1_fill" transform="translate(463.988 80.2929)"/>
<use xlink:href="#path2_fill" transform="translate(463.988 80.2929)"/>
<use xlink:href="#path3_fill" transform="translate(463.988 80.2929)"/>
<use xlink:href="#path4_fill" transform="translate(463.988 80.2929)"/>
</g>
</g>
</g>
<defs>
<path id="path0_fill" d="M 23.7193 1.41422L 1.71933 23.4142L 0.305115 22L 22.3051 0L 23.7193 1.41422Z"/>
<path id="path1_fill" d="M 16.4181 4.47277C 15.0424 3.97723 13.559 3.70711 12.0122 3.70711C 6.7641 3.70711 2.24442 6.8169 0.191437 11.29L 0 11.7071L 0.191437 12.1242C 1.05637 14.0087 2.3591 15.6513 3.96967 16.9212L 5.39542 15.4955C 4.06802 14.4945 2.97443 13.1997 2.21136 11.7071C 4.03311 8.14368 7.73907 5.70711 12.0122 5.70711C 12.9832 5.70711 13.9248 5.83291 14.8217 6.06915L 16.4181 4.47277Z"/>
<path id="path2_fill" d="M 9.20267 17.3451C 10.0996 17.5813 11.0413 17.7071 12.0122 17.7071C 16.2853 17.7071 19.9913 15.2705 21.813 11.7071C 21.05 10.2146 19.9564 8.91969 18.629 7.91877L 20.0547 6.493C 21.6653 7.76296 22.968 9.40549 23.833 11.29L 24.0244 11.7071L 23.833 12.1242C 21.78 16.5973 17.2603 19.7071 12.0122 19.7071C 10.4655 19.7071 8.98199 19.437 7.60629 18.9415L 9.20267 17.3451Z"/>
<path id="path3_fill" d="M 12.0122 7.70711C 12.3705 7.70711 12.7178 7.75422 13.0483 7.84259L 10.5996 10.2912L 10.5963 10.2945L 8.14771 12.7432C 8.05933 12.4127 8.01221 12.0654 8.01221 11.7071C 8.01221 9.49797 9.80307 7.70711 12.0122 7.70711Z"/>
<path id="path4_fill" d="M 13.4248 13.123L 13.4281 13.1197L 15.8767 10.671C 15.9651 11.0015 16.0122 11.3488 16.0122 11.7071C 16.0122 13.9162 14.2213 15.7071 12.0122 15.7071C 11.6539 15.7071 11.3066 15.66 10.9761 15.5716L 13.4248 13.123Z"/>
</defs>
</svg>
