<svg width="24" height="24" viewBox="0 0 24 24" version="1.1" xmlns="http://www.w3.org/2000/svg" xmlns:xlink="http://www.w3.org/1999/xlink">
<title>label</title>
<desc>Created using Figma</desc>
<g id="Canvas" transform="translate(-464 -112)">
<g id="label">
<g id="Union">
<use xlink:href="#path0_fill" transform="translate(464 112)"/>
<use xlink:href="#path1_fill" transform="translate(464 112)"/>
</g>
</g>
</g>
<defs>
<path id="path0_fill" fill-rule="evenodd" d="M 17.6103 3.44062C 15.9815 3.44062 14.6612 4.76098 14.6612 6.38972C 14.6612 8.01846 15.9815 9.33882 17.6103 9.33882C 19.239 9.33882 20.5594 8.01846 20.5594 6.38972C 20.5594 4.76098 19.239 3.44062 17.6103 3.44062ZM 16.6272 6.38972C 16.6272 5.84681 17.0674 5.40669 17.6103 5.40669C 18.1532 5.40669 18.5933 5.84681 18.5933 6.38972C 18.5933 6.93263 18.1532 7.37275 17.6103 7.37275C 17.0674 7.37275 16.6272 6.93263 16.6272 6.38972Z"/>
<path id="path1_fill" fill-rule="evenodd" d="M 14.6066 0L 14.1994 0L 13.9115 0.287923L 0.695111 13.5043L 0 14.1994L 0.695111 14.8945L 9.10551 23.3049L 9.80062 24L 10.4957 23.3049L 23.7121 10.0885L 24 9.80062L 24 9.39344L 24 0.983034L 24 0L 23.017 0L 14.6066 0ZM 2.78044 14.1994L 15.0138 1.96607L 22.0339 1.96607L 22.0339 8.98625L 9.80062 21.2196L 2.78044 14.1994Z"/>
</defs>
</svg>
