<svg width="24" height="24" viewBox="0 0 24 24" version="1.1" xmlns="http://www.w3.org/2000/svg" xmlns:xlink="http://www.w3.org/1999/xlink">
<title>language</title>
<desc>Created using Figma</desc>
<g id="Canvas" transform="translate(-400 -16)">
<g id="language">
<g id="Union">
<use xlink:href="#path0_fill" transform="translate(400 16)"/>
</g>
</g>
</g>
<defs>
<path id="path0_fill" fill-rule="evenodd" d="M 12 0C 18.6274 0 24 5.37258 24 12C 24 18.6274 18.6274 24 12 24C 5.37259 24 0 18.6274 0 12C 0 5.37258 5.37259 0 12 0ZM 12 22C 12.261 22 13.1406 21.6819 14.071 19.652C 14.2652 19.2348 14.4419 18.7895 14.5998 18.3169C 13.7073 18.1237 12.8117 17.9961 12 18C 11.1883 17.9961 10.2927 18.1237 9.40024 18.3169C 9.55807 18.7895 9.7348 19.2348 9.92905 19.652C 10.8594 21.6819 11.739 22 12 22ZM 8.89438 16.3906C 8.68826 15.3546 8.55859 14.2224 8.51566 13L 15.4843 13C 15.4414 14.2224 15.3117 15.3546 15.1056 16.3906C 14.0606 16.1637 12.9768 16.0041 12 16C 11.0232 16.0041 9.93942 16.1638 8.89438 16.3906ZM 16.5253 18.8222C 16.2164 19.7958 15.8431 20.6649 15.419 21.4003C 16.5957 20.9722 17.6693 20.3295 18.5924 19.5195C 18.1457 19.3526 17.586 19.1542 16.95 18.9536C 16.8107 18.9095 16.669 18.8656 16.5253 18.8222ZM 20.0469 17.938C 19.9209 17.8874 19.7614 17.8244 19.5771 17.7537C 19.0798 17.5632 18.3643 17.3031 17.5525 17.0464C 17.3823 16.9927 17.2061 16.9388 17.0251 16.8853C 17.2712 15.6818 17.4292 14.3737 17.4812 13L 21.9506 13C 21.7681 14.8379 21.088 16.5295 20.0469 17.938ZM 6.97491 16.8853C 6.79385 16.9388 6.61771 16.9927 6.44757 17.0464C 5.63571 17.3031 4.92026 17.5632 4.42297 17.7537C 4.23856 17.8244 4.07907 17.8874 3.95306 17.938C 2.91196 16.5295 2.23187 14.8379 2.04938 13L 6.51883 13C 6.57077 14.3737 6.72876 15.6818 6.97491 16.8853ZM 5.40759 19.5195C 5.85431 19.3526 6.414 19.1542 7.04999 18.9536C 7.18933 18.9095 7.33102 18.8656 7.4747 18.8222C 7.78363 19.7959 8.15686 20.6649 8.58099 21.4003C 7.40433 20.9722 6.33075 20.3295 5.40759 19.5195ZM 8.51566 11L 15.4843 11C 15.4414 9.77762 15.3117 8.6454 15.1056 7.60938C 14.0606 7.83625 12.9768 7.99591 12 8C 11.0232 7.99591 9.93942 7.83625 8.89438 7.60937C 8.68826 8.64539 8.55859 9.77762 8.51566 11ZM 9.40024 5.68308C 9.55807 5.21052 9.7348 4.76522 9.92905 4.34803C 10.8594 2.31814 11.739 2 12 2C 12.261 2 13.1406 2.31814 14.071 4.34803C 14.2652 4.76522 14.4419 5.21053 14.5998 5.68308C 13.7073 5.8763 12.8117 6.00393 12 6C 11.1883 6.00393 10.2927 5.8763 9.40024 5.68308ZM 17.0251 7.11472C 17.2712 8.31816 17.4292 9.62628 17.4812 11L 21.9506 11C 21.7681 9.16206 21.088 7.47052 20.0469 6.06201C 19.9209 6.11263 19.7614 6.17562 19.5771 6.24629C 19.0798 6.4368 18.3643 6.69687 17.5525 6.95356C 17.3823 7.00725 17.2061 7.06119 17.0251 7.11472ZM 18.5924 4.4805C 18.1457 4.64737 17.586 4.84576 16.95 5.04644C 16.8107 5.0905 16.669 5.13438 16.5253 5.17777C 16.2164 4.20415 15.8431 3.33507 15.419 2.59974C 16.5957 3.02781 17.6693 3.67051 18.5924 4.4805ZM 7.4747 5.17776C 7.33102 5.13438 7.18933 5.0905 7.04999 5.04644C 6.414 4.84575 5.85431 4.64737 5.40759 4.48049C 6.33075 3.67051 7.40433 3.02781 8.58099 2.59974C 8.15686 3.33507 7.78363 4.20415 7.4747 5.17776ZM 3.95306 6.062C 4.07907 6.11263 4.23856 6.17561 4.42297 6.24629C 4.92026 6.4368 5.63571 6.69687 6.44757 6.95356C 6.61771 7.00725 6.79385 7.06118 6.97491 7.11471C 6.72876 8.31816 6.57077 9.62627 6.51883 11L 2.04938 11C 2.23187 9.16206 2.91196 7.47051 3.95306 6.062Z"/>
</defs>
</svg>
