<svg width="24" height="24" viewBox="0 0 24 24" version="1.1" xmlns="http://www.w3.org/2000/svg" xmlns:xlink="http://www.w3.org/1999/xlink">
<title>link</title>
<desc>Created using Figma</desc>
<g id="Canvas" transform="translate(-208 -272)">
<g id="link">
<g id="Vector 16">
<use xlink:href="#path0_stroke" transform="translate(209 273)"/>
</g>
</g>
</g>
<defs>
<path id="path0_stroke" d="M 1.59203 12.344L 0.884923 11.6369L 0.884923 11.6369L 1.59203 12.344ZM 1.59203 20.408L 2.29914 19.7009L 1.59203 20.408ZM 9.656 20.408L 8.9489 19.7009L 9.656 20.408ZM 20.408 9.656L 19.7009 8.9489L 19.7009 8.9489L 20.408 9.656ZM 20.408 1.59203L 21.1151 0.884924L 20.408 1.59203ZM 12.344 1.59203L 11.6369 0.884924L 11.6369 0.884924L 12.344 1.59203ZM 4.91691 7.6049L 0.884923 11.6369L 2.29914 13.0511L 6.33112 9.01912L 4.91691 7.6049ZM 0.884923 11.6369C -1.49774 14.0196 -1.75584 18.4743 0.884923 21.1151L 2.29914 19.7009C 0.486293 17.888 0.649812 14.7004 2.29914 13.0511L 0.884923 11.6369ZM 0.884923 21.1151C 3.52569 23.7558 7.98045 23.4977 10.3631 21.1151L 8.9489 19.7009C 7.29957 21.3502 4.11198 21.5137 2.29914 19.7009L 0.884923 21.1151ZM 10.3631 21.1151L 14.3951 17.0831L 12.9809 15.6689L 8.9489 19.7009L 10.3631 21.1151ZM 17.0831 14.3951L 21.1151 10.3631L 19.7009 8.9489L 15.6689 12.9809L 17.0831 14.3951ZM 21.1151 10.3631C 23.4977 7.98045 23.7558 3.52569 21.1151 0.884924L 19.7009 2.29914C 21.5137 4.11198 21.3502 7.29957 19.7009 8.9489L 21.1151 10.3631ZM 21.1151 0.884924C 18.4743 -1.75584 14.0196 -1.49774 11.6369 0.884924L 13.0511 2.29914C 14.7004 0.649812 17.888 0.486293 19.7009 2.29914L 21.1151 0.884924ZM 11.6369 0.884924L 7.6049 4.91691L 9.01912 6.33112L 13.0511 2.29914L 11.6369 0.884924ZM 16.2929 4.29289L 4.26091 16.3249L 5.67512 17.7391L 17.7071 5.70711L 16.2929 4.29289Z"/>
</defs>
</svg>
