<svg width="20" height="24" viewBox="0 0 20 24" version="1.1" xmlns="http://www.w3.org/2000/svg" xmlns:xlink="http://www.w3.org/1999/xlink">
<title>locked</title>
<desc>Created using Figma</desc>
<g id="Canvas" transform="translate(-498 -16)">
<g id="locked">
<g id="Union">
<use xlink:href="#path0_fill" transform="translate(498 16)"/>
</g>
</g>
</g>
<defs>
<path id="path0_fill" fill-rule="evenodd" d="M 2 10L 2 8C 2 3.58172 5.58173 0 10 0C 14.4183 0 18 3.58172 18 8L 18 10L 19 10C 19.5523 10 20 10.4477 20 11L 20 23C 20 23.5523 19.5523 24 19 24L 1 24C 0.447723 24 0 23.5523 0 23L 0 11C 0 10.4477 0.447723 10 1 10L 2 10ZM 4 8C 4 4.68629 6.68628 2 10 2C 13.3137 2 16 4.68629 16 8L 16 10L 4 10L 4 8ZM 11.5 19.5L 10.7638 17.2913C 11.2045 17.03 11.5 16.5495 11.5 16C 11.5 15.1716 10.8284 14.5 10 14.5C 9.17157 14.5 8.5 15.1716 8.5 16C 8.5 16.5495 8.79547 17.03 9.23624 17.2913L 8.5 19.5L 11.5 19.5Z"/>
</defs>
</svg>
