<svg width="18" height="24" viewBox="0 0 18 24" version="1.1" xmlns="http://www.w3.org/2000/svg" xmlns:xlink="http://www.w3.org/1999/xlink">
<title>paste</title>
<desc>Created using Figma</desc>
<g id="Canvas" transform="translate(-243 -240)">
<g id="paste">
<g id="Vector 32">
<use xlink:href="#path0_stroke" transform="translate(244 243)"/>
</g>
<g id="Vector 13">
<use xlink:href="#path1_stroke" transform="translate(247 241)"/>
</g>
</g>
</g>
<defs>
<path id="path0_stroke" d="M -1 0.5L -1 19.5L 1 19.5L 1 0.5L -1 0.5ZM 0.5 21L 15.5 21L 15.5 19L 0.5 19L 0.5 21ZM 17 19.5L 17 0.5L 15 0.5L 15 19.5L 17 19.5ZM 1 -1L 0.5 -1L 0.5 1L 1 1L 1 -1ZM 15.5 -1L 15 -1L 15 1L 15.5 1L 15.5 -1ZM 1 0.5C 1 0.776142 0.776142 1 0.5 1L 0.5 -1C -0.328427 -1 -1 -0.328427 -1 0.5L 1 0.5ZM -1 19.5C -1 20.3284 -0.328427 21 0.5 21L 0.5 19C 0.776142 19 1 19.2239 1 19.5L -1 19.5ZM 15.5 21C 16.3284 21 17 20.3284 17 19.5L 15 19.5C 15 19.2239 15.2239 19 15.5 19L 15.5 21ZM 17 0.5C 17 -0.328427 16.3284 -1 15.5 -1L 15.5 1C 15.2239 1 15 0.776142 15 0.5L 17 0.5Z"/>
<path id="path1_stroke" d="M -1 2.1L -1 5.4L 1 5.4L 1 2.1L -1 2.1ZM 0.1 6.5L 9.9 6.5L 9.9 4.5L 0.1 4.5L 0.1 6.5ZM 11 5.4L 11 2.1L 9 2.1L 9 5.4L 11 5.4ZM 1.9 1L 0.1 1L 0.1 3L 1.9 3L 1.9 1ZM 9.9 1L 8.1 1L 8.1 3L 9.9 3L 9.9 1ZM 1 0.1L 1 1.9L 3 1.9L 3 0.1L 1 0.1ZM 9 1.9L 9 0.1L 7 0.1L 7 1.9L 9 1.9ZM 7.9 -1L 2.1 -1L 2.1 1L 7.9 1L 7.9 -1ZM 1 2.1C 1 2.59706 0.597056 3 0.1 3L 0.1 1C -0.507513 1 -1 1.49249 -1 2.1L 1 2.1ZM -1 5.4C -1 6.00751 -0.507513 6.5 0.1 6.5L 0.1 4.5C 0.597056 4.5 1 4.90294 1 5.4L -1 5.4ZM 9.9 6.5C 10.5075 6.5 11 6.00751 11 5.4L 9 5.4C 9 4.90294 9.40294 4.5 9.9 4.5L 9.9 6.5ZM 11 2.1C 11 1.49249 10.5075 1 9.9 1L 9.9 3C 9.40294 3 9 2.59706 9 2.1L 11 2.1ZM 1.9 3C 2.50751 3 3 2.50751 3 1.9L 1 1.9C 1 1.40294 1.40294 1 1.9 1L 1.9 3ZM 8.1 1C 8.59706 1 9 1.40294 9 1.9L 7 1.9C 7 2.50751 7.49249 3 8.1 3L 8.1 1ZM 3 0.1C 3 0.597056 2.59706 1 2.1 1L 2.1 -1C 1.49249 -1 1 -0.507513 1 0.1L 3 0.1ZM 9 0.1C 9 -0.507513 8.50751 -1 7.9 -1L 7.9 1C 7.40294 1 7 0.597056 7 0.1L 9 0.1Z"/>
</defs>
</svg>
