<svg width="22" height="24" viewBox="0 0 22 24" version="1.1" xmlns="http://www.w3.org/2000/svg" xmlns:xlink="http://www.w3.org/1999/xlink">
<title>power</title>
<desc>Created using Figma</desc>
<g id="Canvas" transform="translate(-401 -48)">
<g id="power">
<g id="Union">
<use xlink:href="#path0_fill" transform="translate(401 48)"/>
<use xlink:href="#path1_fill" transform="translate(401 48)"/>
</g>
</g>
</g>
<defs>
<path id="path0_fill" d="M 10 0L 10 13L 12 13L 12 0L 10 0Z"/>
<path id="path1_fill" d="M 20 13C 20 8.71683 17.008 5.13248 13 4.22301L 13 2.18137C 18.1202 3.12189 22 7.60786 22 13C 22 19.0751 17.0751 24 11 24C 4.92487 24 0 19.0751 0 13C 0 7.60786 3.87976 3.12189 9 2.18137L 9 4.22301C 4.99203 5.13248 2 8.71683 2 13C 2 17.9706 6.02945 22 11 22C 15.9706 22 20 17.9706 20 13Z"/>
</defs>
</svg>
