<svg width="24" height="24" viewBox="0 0 24 24" version="1.1" xmlns="http://www.w3.org/2000/svg" xmlns:xlink="http://www.w3.org/1999/xlink">
<title>search</title>
<desc>Created using Figma</desc>
<g id="Canvas" transform="translate(-496 -80)">
<g id="search">
<g id="Union">
<use xlink:href="#path0_fill" transform="translate(496.115 80)"/>
</g>
</g>
</g>
<defs>
<path id="path0_fill" fill-rule="evenodd" d="M 15.3833 17.0031C 20.0786 17.0031 23.8848 13.1968 23.8848 8.50155C 23.8848 3.80627 20.0786 0 15.3833 0C 10.688 0 6.88171 3.80627 6.88171 8.50155C 6.88171 10.3937 7.49985 12.1415 8.5452 13.5539L 0 22.1171L 1.76962 23.883L 10.3103 15.3243C 11.7264 16.3789 13.4819 17.0031 15.3833 17.0031ZM 15.3833 15.0031C 18.9739 15.0031 21.8848 12.0923 21.8848 8.50155C 21.8848 4.91084 18.9739 2 15.3833 2C 11.7925 2 8.88171 4.91084 8.88171 8.50155C 8.88171 12.0923 11.7925 15.0031 15.3833 15.0031Z"/>
</defs>
</svg>
