<svg width="24" height="24" viewBox="0 0 24 24" version="1.1" xmlns="http://www.w3.org/2000/svg" xmlns:xlink="http://www.w3.org/1999/xlink">
<title>send</title>
<desc>Created using Figma</desc>
<g id="Canvas" transform="translate(-240 -272)">
<g id="send">
<g id="send">
<use xlink:href="#path0_stroke" transform="translate(241 273)"/>
</g>
</g>
</g>
<defs>
<path id="path0_stroke" d="M 0 0L 0.447214 -0.894427C 0.0903774 -1.07285 -0.338368 -1.02209 -0.643684 -0.765291C -0.949001 -0.50849 -1.07247 -0.0947817 -0.957826 0.287348L 0 0ZM 0 22L -0.957826 21.7127C -1.07247 22.0948 -0.949001 22.5085 -0.643684 22.7653C -0.338368 23.0221 0.0903774 23.0728 0.447214 22.8944L 0 22ZM 22 11L 22.4472 11.8944C 22.786 11.725 23 11.3788 23 11C 23 10.6212 22.786 10.275 22.4472 10.1056L 22 11ZM -0.957826 0.287348L 2.34217 11.2873L 4.25783 10.7127L 0.957826 -0.287348L -0.957826 0.287348ZM 2.34217 10.7127L -0.957826 21.7127L 0.957826 22.2873L 4.25783 11.2873L 2.34217 10.7127ZM 0.447214 22.8944L 22.4472 11.8944L 21.5528 10.1056L -0.447214 21.1056L 0.447214 22.8944ZM 22.4472 10.1056L 0.447214 -0.894427L -0.447214 0.894427L 21.5528 11.8944L 22.4472 10.1056ZM 3.3 12L 22 12L 22 10L 3.3 10L 3.3 12Z"/>
</defs>
</svg>
