<svg width="24" height="24" viewBox="0 0 24 24" version="1.1" xmlns="http://www.w3.org/2000/svg" xmlns:xlink="http://www.w3.org/1999/xlink">
<title>settings</title>
<desc>Created using Figma</desc>
<g id="Canvas" transform="translate(-464 -48)">
<g id="settings">
<g id="Union">
<use xlink:href="#path0_fill" transform="translate(464 48)"/>
<use xlink:href="#path1_fill" transform="translate(464 48)"/>
</g>
</g>
</g>
<defs>
<path id="path0_fill" fill-rule="evenodd" d="M 16 12C 16 14.2091 14.2091 16 12 16C 9.79086 16 8 14.2091 8 12C 8 9.79086 9.79086 8 12 8C 14.2091 8 16 9.79086 16 12ZM 14 12C 14 13.1046 13.1046 14 12 14C 10.8954 14 10 13.1046 10 12C 10 10.8954 10.8954 10 12 10C 13.1046 10 14 10.8954 14 12Z"/>
<path id="path1_fill" fill-rule="evenodd" d="M 19 2L 14.5 0L 13.3017 1.43795L 12 3L 10.6983 1.43795L 9.5 0L 5 2L 5 6L 1 6.5L 0 11.5L 3 14L 1 17.5L 4.5 21.5L 6.15976 20.7887L 8 20L 8.703 21.8746L 9.5 24L 12 24L 14.5 24L 15.297 21.8746L 16 20L 17.8402 20.7887L 19.5 21.5L 23 17.5L 21 14L 24 11.5L 23 6.5L 19 6L 19 2ZM 10.4636 4.28037C 10.8435 4.73635 11.4064 5 12 5C 12.5936 5 13.1565 4.73635 13.5364 4.28037L 15.0689 2.44146L 17 3.29975L 17 6C 17 7.00865 17.7511 7.85945 18.7519 7.98455L 21.3215 8.30576L 21.8055 10.7254L 19.7196 12.4636C 18.9746 13.0844 18.7823 14.1503 19.2635 14.9923L 20.5566 17.2552L 18.9519 19.0892L 16.7878 18.1617C 16.2856 17.9465 15.7171 17.9461 15.2146 18.1607C 14.7121 18.3753 14.3192 18.7861 14.1273 19.2978L 13.114 22L 12 22L 10.886 22L 9.87265 19.2978C 9.68079 18.7861 9.28793 18.3753 8.7854 18.1607C 8.28287 17.9461 7.71442 17.9465 7.21216 18.1617L 5.04807 19.0892L 3.44336 17.2552L 4.73648 14.9923C 5.21762 14.1503 5.02539 13.0844 4.28036 12.4636L 2.19455 10.7254L 2.67847 8.30576L 5.24808 7.98455C 6.24893 7.85945 7 7.00865 7 6L 7 3.29975L 8.93112 2.44146L 10.4636 4.28037Z"/>
</defs>
</svg>
