<svg width="23" height="24" viewBox="0 0 23 24" version="1.1" xmlns="http://www.w3.org/2000/svg" xmlns:xlink="http://www.w3.org/1999/xlink">
<title>storage</title>
<desc>Created using Figma</desc>
<g id="Canvas" transform="translate(-209 -304)">
<g id="storage">
<g id="Vector 19">
<use xlink:href="#path0_stroke" transform="translate(210 305)"/>
</g>
<g id="Vector 19 (Stroke)">
<use xlink:href="#path1_fill" transform="translate(222.833 306.833)"/>
</g>
</g>
</g>
<defs>
<path id="path0_stroke" d="M 0 16.5L 0 15.5L -1 15.5L -1 16.5L 0 16.5ZM 0 22L -1 22L -1 23L 0 23L 0 22ZM 20.1667 22L 20.1667 23L 21.1667 23L 21.1667 22L 20.1667 22ZM 20.1667 16.5L 21.1667 16.5L 21.1667 15.5L 20.1667 15.5L 20.1667 16.5ZM 0 8.25L 0 7.25L -1 7.25L -1 8.25L 0 8.25ZM 0 13.75L -1 13.75L -1 14.75L 0 14.75L 0 13.75ZM 20.1667 13.75L 20.1667 14.75L 21.1667 14.75L 21.1667 13.75L 20.1667 13.75ZM 20.1667 8.25L 21.1667 8.25L 21.1667 7.25L 20.1667 7.25L 20.1667 8.25ZM 0 0L 0 -1L -1 -1L -1 0L 0 0ZM 0 5.5L -1 5.5L -1 6.5L 0 6.5L 0 5.5ZM 20.1667 5.5L 20.1667 6.5L 21.1667 6.5L 21.1667 5.5L 20.1667 5.5ZM 20.1667 0L 21.1667 0L 21.1667 -1L 20.1667 -1L 20.1667 0ZM -1 16.5L -1 22L 1 22L 1 16.5L -1 16.5ZM 0 23L 20.1667 23L 20.1667 21L 0 21L 0 23ZM 21.1667 22L 21.1667 16.5L 19.1667 16.5L 19.1667 22L 21.1667 22ZM 20.1667 15.5L 0 15.5L 0 17.5L 20.1667 17.5L 20.1667 15.5ZM -1 8.25L -1 13.75L 1 13.75L 1 8.25L -1 8.25ZM 0 14.75L 20.1667 14.75L 20.1667 12.75L 0 12.75L 0 14.75ZM 21.1667 13.75L 21.1667 8.25L 19.1667 8.25L 19.1667 13.75L 21.1667 13.75ZM 20.1667 7.25L 0 7.25L 0 9.25L 20.1667 9.25L 20.1667 7.25ZM -1 0L -1 5.5L 1 5.5L 1 0L -1 0ZM 0 6.5L 20.1667 6.5L 20.1667 4.5L 0 4.5L 0 6.5ZM 21.1667 5.5L 21.1667 0L 19.1667 0L 19.1667 5.5L 21.1667 5.5ZM 20.1667 -1L 0 -1L 0 1L 20.1667 1L 20.1667 -1Z"/>
<path id="path1_fill" fill-rule="evenodd" d="M 0 1.83333L 0 0L 1.83333 0L 1.83333 1.83333L 0 1.83333ZM 3.66667 1.83333L 3.66667 0L 5.5 0L 5.5 1.83333L 3.66667 1.83333ZM 0 10.0833L 0 8.25L 1.83333 8.25L 1.83333 10.0833L 0 10.0833ZM 3.66667 10.0833L 3.66667 8.25L 5.5 8.25L 5.5 10.0833L 3.66667 10.0833ZM 0 18.3333L 0 16.5L 1.83333 16.5L 1.83333 18.3333L 0 18.3333ZM 3.66667 18.3333L 3.66667 16.5L 5.5 16.5L 5.5 18.3333L 3.66667 18.3333Z"/>
</defs>
</svg>
