<svg width="24" height="22" viewBox="0 0 24 22" version="1.1" xmlns="http://www.w3.org/2000/svg" xmlns:xlink="http://www.w3.org/1999/xlink">
<title>thumbs-down</title>
<desc>Created using Figma</desc>
<g id="Canvas" transform="translate(-400 -81)">
<g id="thumbs-down">
<g id="thumbs-down (Stroke)">
<use xlink:href="#path0_fill" transform="matrix(1 0 0 -1 400.5 103)"/>
</g>
</g>
</g>
<defs>
<path id="path0_fill" fill-rule="evenodd" d="M 9.20008 1.03241C 9.40216 0.41645 9.97708 0 10.6253 0L 12.5 0C 13.3284 0 14 0.671573 14 1.5L 14 7L 19.2929 7C 19.6907 7 20.0723 7.15803 20.3536 7.43934L 22.5607 9.64645C 22.842 9.92775 23 10.3093 23 10.7071L 23 17.2929C 23 17.6907 22.842 18.0722 22.5607 18.3536L 19.3536 21.5607C 19.0722 21.842 18.6907 22 18.2929 22L 8.68102 22C 8.39124 21.985 7.953 21.8263 7.72075 21.6523L 6.49441 20.6304C 6.42834 21.3978 5.7845 22 5 22L 1.5 22C 0.671573 22 0 21.3284 0 20.5L 0 8.5C 0 7.67157 0.671573 7 1.5 7L 5 7C 5.70245 7 6.29213 7.48286 6.45522 8.13477L 7.07177 7.51978L 9.20008 1.03241ZM 6.5 10.915L 6.5 18.0316L 8.86205 20L 18.0858 20L 21 17.0858L 21 10.9142L 19.0858 9L 13.5 9C 12.6716 9 12 8.32843 12 7.5L 12 2L 10.9875 2L 8.93483 8.25689C 8.86726 8.44077 8.70264 8.70817 8.56888 8.85131L 6.5 10.915ZM 2 9L 2 20L 4.5 20L 4.5 18.5L 4.5 10.5L 4.5 9L 2 9Z"/>
</defs>
</svg>
