<svg width="20" height="24" viewBox="0 0 20 24" version="1.1" xmlns="http://www.w3.org/2000/svg" xmlns:xlink="http://www.w3.org/1999/xlink">
<title>USB</title>
<desc>Created using Figma</desc>
<g id="Canvas" transform="translate(-306 -272)">
<g id="USB">
<g id="Vector 18">
<use xlink:href="#path0_stroke" transform="translate(307 273)"/>
</g>
<g id="Vector 18">
<use xlink:href="#path1_stroke" transform="translate(312 279)"/>
</g>
</g>
</g>
<defs>
<path id="path0_stroke" d="M 2 0L 2 -1L 1 -1L 1 0L 2 0ZM 16 0L 17 0L 17 -1L 16 -1L 16 0ZM 1 23L 1 15.6L -1 15.6L -1 23L 1 23ZM 17 15.6L 17 23L 19 23L 19 15.6L 17 15.6ZM 0.1 16.5L 2 16.5L 2 14.5L 0.1 14.5L 0.1 16.5ZM 3 15.5L 3 0L 1 0L 1 15.5L 3 15.5ZM 2 1L 16 1L 16 -1L 2 -1L 2 1ZM 2 16.5L 16 16.5L 16 14.5L 2 14.5L 2 16.5ZM 16 16.5L 17.9 16.5L 17.9 14.5L 16 14.5L 16 16.5ZM 15 0L 15 15.5L 17 15.5L 17 0L 15 0ZM 1 15.6C 1 16.0971 0.597056 16.5 0.1 16.5L 0.1 14.5C -0.507513 14.5 -1 14.9925 -1 15.6L 1 15.6ZM 19 15.6C 19 14.9925 18.5075 14.5 17.9 14.5L 17.9 16.5C 17.4029 16.5 17 16.0971 17 15.6L 19 15.6Z"/>
<path id="path1_stroke" d="M -0.75 0.1L -0.75 2.4L 0.75 2.4L 0.75 0.1L -0.75 0.1ZM 0.1 3.25L 2.4 3.25L 2.4 1.75L 0.1 1.75L 0.1 3.25ZM 3.25 2.4L 3.25 0.1L 1.75 0.1L 1.75 2.4L 3.25 2.4ZM 2.4 -0.75L 0.1 -0.75L 0.1 0.75L 2.4 0.75L 2.4 -0.75ZM 4.75 0.1L 4.75 2.4L 6.25 2.4L 6.25 0.1L 4.75 0.1ZM 5.6 3.25L 7.9 3.25L 7.9 1.75L 5.6 1.75L 5.6 3.25ZM 8.75 2.4L 8.75 0.1L 7.25 0.1L 7.25 2.4L 8.75 2.4ZM 7.9 -0.75L 5.6 -0.75L 5.6 0.75L 7.9 0.75L 7.9 -0.75ZM 0.75 0.1C 0.75 0.458985 0.458985 0.75 0.1 0.75L 0.1 -0.75C -0.369442 -0.75 -0.75 -0.369442 -0.75 0.1L 0.75 0.1ZM -0.75 2.4C -0.75 2.86944 -0.369442 3.25 0.1 3.25L 0.1 1.75C 0.458985 1.75 0.75 2.04101 0.75 2.4L -0.75 2.4ZM 2.4 3.25C 2.86944 3.25 3.25 2.86944 3.25 2.4L 1.75 2.4C 1.75 2.04101 2.04101 1.75 2.4 1.75L 2.4 3.25ZM 3.25 0.1C 3.25 -0.369442 2.86944 -0.75 2.4 -0.75L 2.4 0.75C 2.04101 0.75 1.75 0.458985 1.75 0.1L 3.25 0.1ZM 6.25 0.1C 6.25 0.458985 5.95898 0.75 5.6 0.75L 5.6 -0.75C 5.13056 -0.75 4.75 -0.369442 4.75 0.1L 6.25 0.1ZM 4.75 2.4C 4.75 2.86944 5.13056 3.25 5.6 3.25L 5.6 1.75C 5.95898 1.75 6.25 2.04101 6.25 2.4L 4.75 2.4ZM 7.9 3.25C 8.36944 3.25 8.75 2.86944 8.75 2.4L 7.25 2.4C 7.25 2.04101 7.54102 1.75 7.9 1.75L 7.9 3.25ZM 8.75 0.1C 8.75 -0.369442 8.36944 -0.75 7.9 -0.75L 7.9 0.75C 7.54102 0.75 7.25 0.458985 7.25 0.1L 8.75 0.1Z"/>
</defs>
</svg>
