<svg width="26" height="24" viewBox="0 0 26 24" version="1.1" xmlns="http://www.w3.org/2000/svg" xmlns:xlink="http://www.w3.org/1999/xlink">
<title>visible</title>
<desc>Created using Figma</desc>
<g id="Canvas" transform="translate(-431 -80)">
<g id="visible">
<g id="Union">
<use xlink:href="#path0_fill" transform="translate(431.988 80)"/>
<use xlink:href="#path1_fill" transform="translate(431.988 80)"/>
<use xlink:href="#path2_fill" transform="translate(431.988 80)"/>
</g>
</g>
</g>
<defs>
<path id="path0_fill" fill-rule="evenodd" d="M 12.0122 8C 9.80307 8 8.01221 9.79086 8.01221 12C 8.01221 14.2091 9.80307 16 12.0122 16C 14.2213 16 16.0122 14.2091 16.0122 12C 16.0122 9.79086 14.2213 8 12.0122 8ZM 10.0122 12C 10.0122 10.8954 10.9076 10 12.0122 10C 13.1168 10 14.0122 10.8954 14.0122 12C 14.0122 13.1046 13.1168 14 12.0122 14C 10.9076 14 10.0122 13.1046 10.0122 12Z"/>
<path id="path1_fill" fill-rule="evenodd" d="M 12.0122 4C 6.7641 4 2.24445 7.10979 0.191437 11.5829L 0.012207 11.9734L 0 12L 0.012207 12.0266L 0.191437 12.4171C 2.24445 16.8902 6.7641 20 12.0122 20C 17.2603 20 21.78 16.8902 23.833 12.4171L 24.0122 12.0266L 24.0244 12L 24.0122 11.9734L 23.833 11.5829C 21.78 7.10979 17.2603 4 12.0122 4ZM 12.0122 18C 7.73907 18 4.03311 15.5634 2.2114 12C 4.03311 8.43658 7.73907 6 12.0122 6C 16.2853 6 19.9913 8.43658 21.813 12C 19.9913 15.5634 16.2853 18 12.0122 18Z"/>
<path id="path2_fill" fill-rule="evenodd" d="M 0.012207 11.9734L 0.012207 12.0266L 0.191437 12.4171C 2.24445 16.8902 6.7641 20 12.0122 20C 17.2603 20 21.78 16.8902 23.833 12.4171L 24.0122 12.0266L 24.0122 11.9734L 23.833 11.5829C 21.78 7.10979 17.2603 4 12.0122 4C 6.7641 4 2.24445 7.10979 0.191437 11.5829L 0.012207 11.9734ZM 12.0122 18C 7.73907 18 4.03311 15.5634 2.2114 12C 4.03311 8.43658 7.73907 6 12.0122 6C 16.2853 6 19.9913 8.43658 21.813 12C 19.9913 15.5634 16.2853 18 12.0122 18ZM 8.01221 12C 8.01221 9.79086 9.80307 8 12.0122 8C 14.2213 8 16.0122 9.79086 16.0122 12C 16.0122 14.2091 14.2213 16 12.0122 16C 9.80307 16 8.01221 14.2091 8.01221 12ZM 10.0122 12C 10.0122 10.8954 10.9076 10 12.0122 10C 13.1168 10 14.0122 10.8954 14.0122 12C 14.0122 13.1046 13.1168 14 12.0122 14C 10.9076 14 10.0122 13.1046 10.0122 12Z"/>
</defs>
</svg>
