<svg width="24" height="21" viewBox="0 0 24 21" version="1.1" xmlns="http://www.w3.org/2000/svg" xmlns:xlink="http://www.w3.org/1999/xlink">
<title>warning</title>
<desc>Created using Figma</desc>
<g id="Canvas" transform="translate(-496 -114)">
<g id="warning">
<g id="Union">
<use xlink:href="#path0_fill" transform="translate(496.361 114.008)"/>
<use xlink:href="#path1_fill" transform="translate(496.361 114.008)"/>
<use xlink:href="#path2_fill" transform="translate(496.361 114.008)"/>
</g>
</g>
</g>
<defs>
<path id="path0_fill" d="M 10.6791 13.5915L 12.6039 13.5915L 12.7789 7.99222L 10.5042 7.99222L 10.6791 13.5915Z"/>
<path id="path1_fill" d="M 10.6791 14.2915L 10.6791 16.2162L 12.6039 16.2162L 12.6039 14.2915L 10.6791 14.2915Z"/>
<path id="path2_fill" fill-rule="evenodd" d="M 10.4874 1.50778L 10.5028 1.4808L 10.7841 0.988625L 11.205 0.25193C 11.397 -0.0839767 11.8813 -0.0839767 12.0733 0.25193L 12.4942 0.988625L 12.7755 1.4808L 12.7909 1.50778L 22.4963 18.4922L 22.5095 18.5154L 22.7776 18.9844L 23.2117 19.7441C 23.4022 20.0775 23.1615 20.4922 22.7776 20.4922L 21.9026 20.4922L 21.3624 20.4922L 21.3356 20.4922L 1.94266 20.4922L 1.91596 20.4922L 1.37574 20.4922L 0.500738 20.4922C 0.116827 20.4922 -0.123865 20.0775 0.0666258 19.7441L 0.500738 18.9844L 0.768774 18.5154L 0.782019 18.4922L 10.4874 1.50778ZM 3.08552 18.4922L 11.6392 3.52335L 20.1928 18.4922L 3.08552 18.4922Z"/>
</defs>
</svg>
