<svg width="24" height="24" viewBox="0 0 24 24" version="1.1" xmlns="http://www.w3.org/2000/svg" xmlns:xlink="http://www.w3.org/1999/xlink">
<title>wifi</title>
<desc>Created using Figma</desc>
<g id="Canvas" transform="translate(-240 -304)">
<g id="wifi">
<g id="Vector 20">
<use xlink:href="#path0_fill" transform="translate(254.529 318.529)"/>
<use xlink:href="#path1_stroke" transform="translate(254.529 318.529)"/>
</g>
<g id="Vector 20">
<use xlink:href="#path2_stroke" transform="translate(247.765 311.765)"/>
</g>
<g id="Vector 20">
<use xlink:href="#path3_stroke" transform="translate(241 305)"/>
</g>
</g>
</g>
<defs>
<path id="path0_fill" d="M 8.11765 6.76471C 8.49125 7.13831 8.49125 7.74404 8.11765 8.11765C 7.74404 8.49125 7.13831 8.49125 6.76471 8.11765C 6.3911 7.74404 6.3911 7.13831 6.76471 6.76471C 7.13831 6.3911 7.74404 6.3911 8.11765 6.76471Z"/>
<path id="path1_stroke" d="M 8.11765 8.11765L 7.41054 7.41054L 7.41054 7.41054L 8.11765 8.11765ZM 8.11765 6.76471L 7.41054 7.47181L 7.41054 7.47181L 8.11765 6.76471ZM 6.76471 8.11765L 7.47181 7.41054L 7.47181 7.41054L 6.76471 8.11765ZM 1 9.47059C 1 7.42817 2.03128 5.30206 3.66667 3.66667C 5.30206 2.03128 7.42817 1 9.47059 1L 9.47059 -1C 6.77771 -1 4.16853 0.336371 2.25245 2.25245C 0.336371 4.16853 -1 6.77771 -1 9.47059L 1 9.47059ZM 8.82475 8.82475C 9.58888 8.06063 9.58888 6.82173 8.82475 6.0576L 7.41054 7.47181C 7.39362 7.45489 7.39362 7.42746 7.41054 7.41054L 8.82475 8.82475ZM 8.82475 6.0576C 8.06063 5.29347 6.82173 5.29347 6.0576 6.0576L 7.47181 7.47181C 7.45489 7.48873 7.42746 7.48873 7.41054 7.47181L 8.82475 6.0576ZM 6.0576 6.0576C 5.29347 6.82173 5.29347 8.06063 6.0576 8.82475L 7.47181 7.41054C 7.48873 7.42746 7.48873 7.45489 7.47181 7.47181L 6.0576 6.0576ZM 6.0576 8.82475C 6.82173 9.58888 8.06063 9.58888 8.82475 8.82475L 7.41054 7.41054C 7.42746 7.39362 7.45489 7.39362 7.47181 7.41054L 6.0576 8.82475Z"/>
<path id="path2_stroke" d="M 1 16.2353C 1 12.5017 2.87686 8.68441 5.78064 5.78064C 8.68441 2.87686 12.5017 1 16.2353 1L 16.2353 -1C 11.8512 -1 7.55089 1.18196 4.36642 4.36642C 1.18196 7.55089 -1 11.8512 -1 16.2353L 1 16.2353Z"/>
<path id="path3_stroke" d="M 1 23C 1 17.5752 3.72245 12.0668 7.89461 7.89461C 12.0668 3.72245 17.5752 1 23 1L 23 -1C 16.9248 -1 10.9332 2.02755 6.48039 6.48039C 2.02755 10.9332 -1 16.9248 -1 23L 1 23Z"/>
</defs>
</svg>
