<svg xmlns="http://www.w3.org/2000/svg"
    height="24"
    width="24"
    viewBox="0 0 24 24"
    fill="none">
    <title>App Store</title>
    <path d="M10.5338 4.84088L11.6255 6.732C11.8041 7.04139 11.8041 7.42256 11.6255 7.73195L8.14281 13.7645C7.96418 14.0739 7.63405 14.2645 7.27677 14.2645H4.56049C4.54445 14.2645 4.52906 14.2709 4.51772 14.2822C4.50637 14.2936 4.5 14.3089 4.5 14.325C4.5 14.341 4.50637 14.3564 4.51772 14.3678C4.52906 14.3791 4.54445 14.3855 4.56049 14.3855H13.1943C13.1673 14.3637 13.1383 14.3444 13.1075 14.328C13.029 14.2863 12.9415 14.2645 12.8527 14.2645H12.8526H9.72604C9.36877 14.2645 9.03864 14.0739 8.86001 13.7645C8.68137 13.4551 8.68138 13.0739 8.86002 12.7645L13.4349 4.84088H10.5338ZM10.5338 4.84088C10.5338 4.84088 10.5338 4.84087 10.5338 4.84087C10.5257 4.82695 10.5236 4.81042 10.5277 4.79491C10.5319 4.77939 10.542 4.76615 10.556 4.75812C10.5699 4.75008 10.5864 4.74791 10.6019 4.75207C10.6175 4.75623 10.6307 4.76638 10.6387 4.7803M10.5338 4.84088L10.6387 4.7803M10.6387 4.7803L11.1178 5.6119C11.2964 5.92174 11.6267 6.11268 11.9843 6.11268C12.3419 6.11268 12.6723 5.92174 12.8508 5.6119L13.3299 4.7803C13.33 4.78022 13.33 4.78014 13.3301 4.78006C13.334 4.77327 13.3393 4.76731 13.3455 4.76253C13.3518 4.75768 13.359 4.75413 13.3667 4.75207C13.3744 4.75001 13.3824 4.74948 13.3903 4.75052C13.3982 4.75156 13.4058 4.75414 13.4127 4.75812C13.4196 4.7621 13.4256 4.76739 13.4305 4.7737C13.4353 4.78002 13.4389 4.78722 13.4409 4.79491C13.443 4.80259 13.4435 4.81061 13.4425 4.8185C13.4414 4.82636 13.4389 4.83395 13.4349 4.84082L10.6387 4.7803ZM19.4377 14.3859C19.4277 14.3856 19.4177 14.3855 19.4077 14.3855H17.9163C17.5589 14.3855 17.2286 14.5762 17.0501 14.8858C16.8715 15.1954 16.8717 15.5768 17.0507 15.8862L18.0643 17.6384C18.0643 17.6385 18.0644 17.6386 18.0644 17.6387C18.0683 17.6455 18.0708 17.653 18.0719 17.6608C18.0729 17.6687 18.0724 17.6767 18.0703 17.6844C18.0682 17.6921 18.0647 17.6993 18.0598 17.7056C18.055 17.7119 18.049 17.7172 18.0421 17.7212C18.0352 17.7251 18.0276 17.7277 18.0197 17.7288C18.0118 17.7298 18.0038 17.7293 17.9961 17.7272C17.9884 17.7252 17.9812 17.7216 17.9749 17.7168C17.9686 17.7119 17.9633 17.7059 17.9593 17.699L14.2114 11.2041C14.1456 11.0761 14.0767 10.9457 14.0114 10.834C13.9041 10.6473 13.8302 10.445 13.7914 10.2361L15.8292 13.7654C16.0079 14.0748 16.338 14.2653 16.6953 14.2653H19.4115C19.4203 14.2653 19.4291 14.2652 19.4379 14.265C19.446 14.2648 19.454 14.2662 19.4616 14.2691C19.4691 14.2721 19.476 14.2765 19.4818 14.2822C19.4875 14.2878 19.4921 14.2946 19.4953 14.302C19.4984 14.3095 19.5 14.3175 19.5 14.3256C19.5 14.3336 19.4984 14.3417 19.4952 14.3491C19.492 14.3565 19.4874 14.3633 19.4816 14.3689C19.4758 14.3745 19.4689 14.3789 19.4614 14.3819C19.4538 14.3848 19.4458 14.3862 19.4377 14.3859ZM5.90608 17.6384L6.40517 16.7742C6.4497 16.7767 6.49404 16.7807 6.5381 16.7864L6.01113 17.6988L6.01103 17.699C6.00705 17.7059 6.00175 17.7119 5.99544 17.7168C5.98913 17.7216 5.98193 17.7252 5.97424 17.7272C5.96656 17.7293 5.95854 17.7298 5.95065 17.7288C5.94276 17.7277 5.93515 17.7251 5.92827 17.7212C5.92137 17.7172 5.91533 17.7119 5.91049 17.7056C5.90565 17.6993 5.90209 17.6921 5.90003 17.6844C5.89797 17.6767 5.89745 17.6687 5.89849 17.6608C5.89952 17.6529 5.90207 17.6454 5.906 17.6385C5.90601 17.6385 5.90602 17.6385 5.90603 17.6385C5.90605 17.6385 5.90606 17.6384 5.90608 17.6384Z" stroke="currentColor" stroke-width="2" stroke-linejoin="round" />
    <circle cx="12" cy="12" r="11" stroke="black" stroke-width="2" />
</svg>