<svg xmlns="http://www.w3.org/2000/svg"
    height="24"
    width="24"
    viewBox="0 0 24 24"
    fill="none">
    <title>App Store</title>
    <path d="M19.4077 15.3855H17.9163L18.9303 17.1384C18.9999 17.2591 19.0451 17.3922 19.0633 17.5303C19.0815 17.6684 19.0723 17.8087 19.0362 17.9432C19.0002 18.0778 18.938 18.2039 18.8532 18.3144C18.7684 18.4249 18.6626 18.5176 18.542 18.5872C18.4214 18.6568 18.2882 18.702 18.1502 18.7202C18.0121 18.7384 17.8718 18.7292 17.7372 18.6931C17.6027 18.6571 17.4766 18.5949 17.3661 18.5101C17.2556 18.4253 17.1629 18.3196 17.0933 18.1989L13.333 11.6826C13.2641 11.5483 13.2011 11.4291 13.1466 11.3362C12.8317 10.7902 12.7038 10.1564 12.7822 9.53099C12.8606 8.90563 13.1411 8.32298 13.581 7.87164L16.6953 13.2653H19.4115C19.5533 13.2616 19.6943 13.2863 19.8263 13.338C19.9583 13.3897 20.0786 13.4674 20.1801 13.5664C20.2816 13.6654 20.3622 13.7838 20.4171 13.9145C20.4721 14.0452 20.5003 14.1856 20.5 14.3274C20.4997 14.4691 20.4711 14.6094 20.4156 14.7399C20.3602 14.8704 20.2792 14.9885 20.1774 15.0871C20.0756 15.1858 19.955 15.263 19.8228 15.3143C19.6906 15.3655 19.5495 15.3897 19.4077 15.3855ZM9.72604 13.2645H12.8526C13.1052 13.2645 13.3539 13.3265 13.5769 13.4451C13.8 13.5637 13.9905 13.7352 14.1317 13.9447C14.2729 14.1541 14.3606 14.395 14.3869 14.6462C14.4132 14.8975 14.3775 15.1513 14.2828 15.3855H4.56049C4.27923 15.3855 4.00949 15.2737 3.81061 15.0749C3.61173 14.876 3.5 14.6062 3.5 14.325C3.5 14.0437 3.61173 13.774 3.81061 13.5751C4.00949 13.3762 4.27923 13.2645 4.56049 13.2645H7.27677L10.7595 7.23197L9.66773 5.34084C9.5271 5.09723 9.489 4.80773 9.56182 4.53603C9.63464 4.26434 9.8124 4.03269 10.056 3.89207C10.2996 3.75144 10.5891 3.71334 10.8608 3.78616C11.1325 3.85897 11.3642 4.03674 11.5048 4.28035L11.9843 5.11268L12.4639 4.28035C12.5335 4.15973 12.6262 4.054 12.7367 3.96921C12.8472 3.88441 12.9733 3.82221 13.1078 3.78616C13.2424 3.7501 13.3827 3.7409 13.5208 3.75907C13.6589 3.77724 13.792 3.82243 13.9126 3.89207C14.0333 3.9617 14.139 4.05441 14.2238 4.1649C14.3086 4.27539 14.3708 4.4015 14.4068 4.53603C14.4429 4.67057 14.4521 4.81088 14.4339 4.94897C14.4157 5.08706 14.3706 5.22021 14.3009 5.34084L9.72604 13.2645ZM5.80519 15.8135C5.96735 15.7855 6.13159 15.7714 6.29614 15.7712C6.89634 15.7704 7.48178 15.9573 7.97053 16.3057L6.87708 18.1989C6.80745 18.3196 6.71474 18.4253 6.60425 18.5101C6.49376 18.5949 6.36765 18.6571 6.23311 18.6931C6.09858 18.7292 5.95827 18.7384 5.82018 18.7202C5.68209 18.702 5.54894 18.6568 5.42831 18.5872C5.30769 18.5176 5.20196 18.4249 5.11717 18.3144C5.03238 18.2039 4.97018 18.0778 4.93412 17.9432C4.89807 17.8087 4.88886 17.6684 4.90703 17.5303C4.92521 17.3922 4.9704 17.2591 5.04003 17.1384L5.80519 15.8135Z" fill="currentColor" />
    <circle cx="12" cy="12" r="11" stroke="currentColor" stroke-width="2" />
</svg>