<svg xmlns="http://www.w3.org/2000/svg"
    height="24"
    width="24"
    viewBox="0 0 24 24"
    fill="none">
    <title>Discord</title>
    <path d="M18.9523 15.7204C18.9523 15.7204 17.9302 16.4062 17.2198 16.7404C15.3402 17.6245 14.0769 17.7604 11.9998 17.7604C9.92268 17.7604 8.65931 17.6245 6.77977 16.7404C6.0693 16.4062 5.04727 15.7204 5.04727 15.7204M8.18227 17.7304L7.19227 19.0879L6.98977 19.1854C6.98977 19.1854 5.34614 18.9726 4.38727 18.5554C3.08144 17.9873 1.47727 16.3579 1.47727 16.3579L1.44727 16.2379C1.44727 16.2379 1.77258 12.0568 2.54977 9.51043C2.86381 8.48152 3.00818 7.88236 3.49477 6.92293C3.77877 6.36294 3.91385 6.02196 4.31977 5.54293C5.55603 4.08397 8.92477 3.87793 8.92477 3.87793L9.16476 4.02043L9.34476 4.60543M5.73727 6.45043C5.73727 6.45043 8.86477 4.78145 11.9998 4.80043C15.1348 4.81941 18.2623 6.45043 18.2623 6.45043M15.8173 17.7304L16.8073 19.0879L17.0098 19.1854C17.0098 19.1854 18.6534 18.9726 19.6123 18.5554C20.9181 17.9873 22.5223 16.3579 22.5223 16.3579L22.5523 16.2379C22.5523 16.2379 22.2269 12.0568 21.4498 9.51043C21.1357 8.48152 20.9913 7.88236 20.5048 6.92293C20.2208 6.36295 20.0857 6.02196 19.6798 5.54293C18.4435 4.08397 15.0748 3.87793 15.0748 3.87793L14.8348 4.02043L14.6548 4.60543M8.87977 10.5604C9.87608 10.5604 10.5598 11.4841 10.5598 12.4804C10.5598 13.4767 9.87608 14.4004 8.87977 14.4004C7.88345 14.4004 7.19977 13.4767 7.19977 12.4804C7.19977 11.4841 7.88345 10.5604 8.87977 10.5604ZM13.4398 12.4804C13.4398 11.4841 14.1234 10.5604 15.1198 10.5604C16.1161 10.5604 16.7998 11.4841 16.7998 12.4804C16.7998 13.4767 16.1161 14.4004 15.1198 14.4004C14.1234 14.4004 13.4398 13.4767 13.4398 12.4804Z" stroke="currentColor" stroke-width="2" stroke-linejoin="round" />
</svg>