<svg
    xmlns="http://www.w3.org/2000/svg"
    height="24"
    width="24"
    viewBox="0 0 24 24"
    fill="none"
    stroke="currentColor"
    stroke-width="2"
    stroke-linejoin="round" >
    <title>GitHub</title>
    <path d="M 8.5 23L 8.5 18C 8.5 17 9 16 9.5 15.5C 6.5 15.5 3.5 14 3.5 9C 3.5 7.5 4 6.5 5 5.5C 5 5.5 4.5 4 5 2C 5 2 6 1.5 8.5 3.5C 9.5 3 11 3 12 3C 13 3 14 3 15.5 3.5C 18 1.5 19 2 19 2C 19.5 4 19 5.5 19 5.5C 20 6.5 20.5 7.5 20.5 9C 20.5 14 17.5 15.5 14.5 15.5C 15 16 15.5 17 15.5 18L 15.5 23M 9 20C 4 21 6 16 2 16" />
</svg>