<svg xmlns="http://www.w3.org/2000/svg"
    height="24"
    width="24"
    viewBox="0 0 24 24"
    fill="none">
    <title>Google Play</title>
    <g clip-path="url(#clip0)">
        <path d="M2.9222 0.0112082C2.7879 -0.00589974 2.65012 -0.00206458 2.50963 0.0135523C2.48749 0.0160132 2.46623 0.0148618 2.44399 0.0182406C2.28229 0.0326393 2.12519 0.0796895 1.9822 0.156545C1.8932 0.203806 1.8105 0.262087 1.73606 0.330012C1.26514 0.684382 1 1.28607 1 1.80448V11.957V22.3134C1 22.8317 1.24736 23.4939 1.84155 23.816C2.43574 24.1381 3.10827 23.992 3.55043 23.7246C3.55121 23.7238 3.55199 23.723 3.55277 23.7222C3.48112 23.7659 3.88465 23.5311 4.39432 23.2417C4.904 22.9523 5.6127 22.5497 6.45248 22.0743C8.13206 21.1236 10.3393 19.8759 12.5496 18.6261C14.7599 17.3763 16.9741 16.1262 18.6655 15.1685C19.5112 14.6896 20.225 14.2847 20.7447 13.9893C21.2635 13.6946 21.5191 13.5497 21.6754 13.4549C22.1411 13.1725 22.6131 12.6274 22.6036 11.9242C22.5942 11.2209 22.1212 10.708 21.673 10.4544C21.4725 10.3411 17.093 7.86678 12.7114 5.38868C10.5205 4.14963 8.32956 2.90959 6.65642 1.96154C5.81986 1.48751 5.11192 1.08489 4.60061 0.794153C4.0893 0.503415 3.70348 0.28046 3.74265 0.304226C3.74187 0.304226 3.74109 0.304226 3.74031 0.304226C3.50377 0.161322 3.22284 0.0495065 2.9222 0.0112082ZM3.40041 4.0197L10.3086 11.9499L3.40041 19.8825V11.957V4.0197ZM7.71598 5.3207C8.96667 6.02837 10.1505 6.69716 11.5299 7.47731C12.4056 7.97255 12.5425 8.05005 13.3208 8.48998L11.9003 10.1215L7.71598 5.3207ZM15.4517 9.69253C16.8485 10.4816 18.9595 11.6754 19.4578 11.957C18.9472 12.247 18.286 12.6244 17.4817 13.0798C16.9229 13.3962 16.1151 13.8538 15.461 14.2238C15.4378 14.1889 15.4128 14.1552 15.386 14.123L13.492 11.9499L15.386 9.77457C15.4091 9.7482 15.431 9.72082 15.4517 9.69253V9.69253ZM11.9003 13.7784L13.3349 15.424C12.6406 15.8165 12.0794 16.1353 11.3682 16.5374C10.0313 17.2933 8.8993 17.9346 7.68082 18.6237L11.9003 13.7784Z" fill="currentColor" />
    </g>
    <defs>
        <clipPath id="clip0">
            <rect width="24" height="24" fill="white" />
        </clipPath>
    </defs>
</svg>