<svg width="167" height="50" viewBox="0 0 167 50" version="1.1" xmlns="http://www.w3.org/2000/svg" xmlns:xlink="http://www.w3.org/1999/xlink">
<title>logo</title>
<desc>Created using Figma</desc>
<g id="Canvas" transform="matrix(0.943396 0 0 0.943396 -1096.23 -287.736)">
<g id="logo">
<g id="logo-text">
<use xlink:href="#path0_fill" transform="translate(1226.49 305.67)" fill="#0C0D1F"/>
<use xlink:href="#path1_fill" transform="translate(1226.49 305.67)" fill="#0C0D1F"/>
<use xlink:href="#path2_fill" transform="translate(1226.49 305.67)" fill="#0C0D1F"/>
<use xlink:href="#path3_fill" transform="translate(1226.49 305.67)" fill="#0C0D1F"/>
<use xlink:href="#path4_fill" transform="translate(1226.49 305.67)" fill="#0C0D1F"/>
<use xlink:href="#path5_fill" transform="translate(1226.49 305.67)" fill="#0C0D1F"/>
<use xlink:href="#path6_fill" transform="translate(1226.49 305.67)" fill="#0C0D1F"/>
<use xlink:href="#path7_fill" transform="translate(1226.49 305.67)" fill="#0C0D1F"/>
<use xlink:href="#path8_fill" transform="translate(1226.49 305.67)" fill="#0C0D1F"/>
<use xlink:href="#path9_fill" transform="translate(1226.49 305.67)" fill="#0C0D1F"/>
</g>
<g id="logo-icon">
<use xlink:href="#path10_fill" transform="translate(1162 305.936)" fill="#0A0B19"/>
<use xlink:href="#path11_fill" transform="translate(1162 305.936)" fill="#0A0B19"/>
<use xlink:href="#path12_fill" transform="translate(1162 305.936)" fill="#0A0B19"/>
<use xlink:href="#path13_fill" transform="translate(1162 305.936)" fill="#0A0B19"/>
<use xlink:href="#path14_fill" transform="translate(1162 305.936)" fill="#0A0B19"/>
<use xlink:href="#path15_fill" transform="translate(1162 305.936)" fill="#0A0B19"/>
<use xlink:href="#path16_fill" transform="translate(1162 305.936)" fill="#0A0B19"/>
<use xlink:href="#path17_fill" transform="translate(1162 305.936)" fill="#0A0B19"/>
</g>
</g>
</g>
<defs>
<path id="path0_fill" d="M 4.91725 21.5342L 15.43 21.5342L 15.43 24.298L 1.62778 24.298L 1.62778 0L 4.91725 0L 4.91725 21.5342Z"/>
<path id="path1_fill" d="M 28.492 21.6868C 29.498 21.6868 30.3967 21.5172 31.188 21.1781C 31.9793 20.839 32.6462 20.3642 33.1888 19.7538C 33.7427 19.1434 34.161 18.4143 34.4436 17.5665C 34.7375 16.7187 34.8844 15.7861 34.8844 14.7687L 34.8844 0L 38.1569 0L 38.1569 14.7687C 38.1569 16.1704 37.9309 17.4704 37.4787 18.6686C 37.0378 19.8668 36.3992 20.9068 35.5627 21.7885C 34.7375 22.6589 33.7258 23.3428 32.5275 23.8402C 31.3293 24.3376 29.9841 24.5863 28.492 24.5863C 26.9999 24.5863 25.6547 24.3376 24.4564 23.8402C 23.2582 23.3428 22.2409 22.6589 21.4044 21.7885C 20.5679 20.9068 19.9235 19.8668 19.4714 18.6686C 19.0305 17.4704 18.8101 16.1704 18.8101 14.7687L 18.8101 0L 22.0826 0L 22.0826 14.7518C 22.0826 15.7691 22.2239 16.7017 22.5065 17.5495C 22.8004 18.3973 23.2187 19.1264 23.7613 19.7368C 24.3151 20.3473 24.9877 20.8277 25.779 21.1781C 26.5816 21.5172 27.4859 21.6868 28.492 21.6868Z"/>
<path id="path2_fill" d="M 45.5148 0C 45.8087 0 46.0235 0.0395641 46.1591 0.118692C 46.3061 0.186517 46.47 0.333469 46.6509 0.55955L 60.7244 18.8721C 60.6905 18.5782 60.6679 18.2956 60.6566 18.0243C 60.6452 17.7417 60.6396 17.4704 60.6396 17.2104L 60.6396 0L 63.5221 0L 63.5221 24.298L 61.8604 24.298C 61.6004 24.298 61.38 24.2528 61.1991 24.1624C 61.0296 24.0719 60.86 23.9193 60.6905 23.7046L 46.6339 5.40898C 46.6565 5.69158 46.6735 5.96853 46.6848 6.23983C 46.6961 6.51112 46.7017 6.75981 46.7017 6.98589L 46.7017 24.298L 43.8192 24.298L 43.8192 0L 45.5148 0Z"/>
<path id="path3_fill" d="M 89.4432 24.298L 86.8997 24.298C 86.6058 24.298 86.3685 24.2245 86.1876 24.0776C 86.0067 23.9306 85.8711 23.7441 85.7806 23.518L 83.5085 17.6512L 72.6058 17.6512L 70.3337 23.518C 70.2546 23.7215 70.1189 23.9024 69.9267 24.0606C 69.7346 24.2189 69.4972 24.298 69.2146 24.298L 66.6712 24.298L 76.387 0L 79.7273 0L 89.4432 24.298ZM 73.5214 15.2774L 82.5929 15.2774L 78.7778 5.39202C 78.5291 4.78161 78.2861 4.01858 78.0487 3.10296C 77.9243 3.56642 77.8 3.99597 77.6757 4.39162C 77.5626 4.77595 77.4496 5.11507 77.3365 5.40898L 73.5214 15.2774Z"/>
<path id="path4_fill" d="M 96.1132 14.1583L 96.1132 24.298L 92.8407 24.298L 92.8407 0L 99.7079 0C 101.245 0 102.573 0.158256 103.693 0.474769C 104.812 0.779978 105.733 1.22649 106.456 1.8143C 107.191 2.40211 107.734 3.11426 108.084 3.95076C 108.435 4.77595 108.61 5.70288 108.61 6.73155C 108.61 7.59066 108.474 8.39324 108.203 9.13931C 107.932 9.88538 107.536 10.558 107.016 11.1571C 106.507 11.7449 105.88 12.2479 105.134 12.6662C 104.399 13.0844 103.563 13.4009 102.624 13.6157C 103.031 13.8531 103.393 14.1979 103.71 14.65L 110.797 24.298L 107.881 24.298C 107.282 24.298 106.841 24.0663 106.558 23.6028L 100.251 14.9213C 100.058 14.65 99.8492 14.4579 99.6231 14.3448C 99.3971 14.2205 99.0579 14.1583 98.6058 14.1583L 96.1132 14.1583ZM 96.1132 11.7675L 99.5553 11.7675C 100.516 11.7675 101.358 11.6545 102.082 11.4284C 102.817 11.191 103.427 10.8632 103.913 10.4449C 104.41 10.0154 104.783 9.50669 105.032 8.91888C 105.281 8.33107 105.405 7.68109 105.405 6.96894C 105.405 5.52202 104.925 4.43118 103.964 3.69642C 103.014 2.96166 101.596 2.59428 99.7079 2.59428L 96.1132 2.59428L 96.1132 11.7675Z"/>
<path id="path5_fill" d="M 0 37.205L 2.09577 37.205L 2.09577 51.4277L 0 51.4277L 0 37.205Z"/>
<path id="path6_fill" d="M 24.0789 51.7329C 22.6139 51.7329 21.3117 51.4277 20.1722 50.8173C 19.0328 50.2069 18.1443 49.3455 17.5068 48.2332C 16.8692 47.1073 16.5504 45.8051 16.5504 44.3265C 16.5504 42.8479 16.8692 41.5457 17.5068 40.4198C 18.1443 39.2939 19.0328 38.4258 20.1722 37.8154C 21.3117 37.205 22.6139 36.8997 24.0789 36.8997C 26.0323 36.8997 27.6668 37.3949 28.9826 38.3851L 28.9826 40.3791C 27.8025 39.3346 26.2289 38.8124 24.262 38.8124C 23.1633 38.8124 22.1866 39.0362 21.332 39.4838C 20.491 39.9315 19.8331 40.5758 19.3584 41.4168C 18.8836 42.2443 18.6462 43.2142 18.6462 44.3265C 18.6462 45.4388 18.8836 46.4155 19.3584 47.2565C 19.8467 48.0975 20.5114 48.7419 21.3524 49.1895C 22.207 49.6371 23.1769 49.861 24.262 49.861C 25.2658 49.861 26.1611 49.7321 26.9479 49.4744C 27.7482 49.2031 28.4875 48.7758 29.1657 48.1925L 29.1657 50.2069C 27.9449 51.2242 26.2493 51.7329 24.0789 51.7329Z"/>
<path id="path7_fill" d="M 50.1757 51.7329C 48.765 51.7329 47.4899 51.4277 46.3504 50.8173C 45.211 50.1933 44.3157 49.3184 43.6646 48.1925C 43.0135 47.0666 42.6879 45.7779 42.6879 44.3265C 42.6879 42.8751 43.0135 41.5864 43.6646 40.4605C 44.3157 39.3346 45.211 38.4597 46.3504 37.8357C 47.4899 37.2117 48.765 36.8997 50.1757 36.8997C 51.5864 36.8997 52.8615 37.2117 54.001 37.8357C 55.1404 38.4597 56.0357 39.3346 56.6868 40.4605C 57.3379 41.5864 57.6635 42.8751 57.6635 44.3265C 57.6635 45.7779 57.3379 47.0666 56.6868 48.1925C 56.0357 49.3184 55.1404 50.1933 54.001 50.8173C 52.8615 51.4277 51.5864 51.7329 50.1757 51.7329ZM 50.1757 49.861C 51.1795 49.861 52.0883 49.6371 52.9022 49.1895C 53.7297 48.7283 54.3808 48.084 54.8556 47.2565C 55.3303 46.4155 55.5677 45.4388 55.5677 44.3265C 55.5677 43.2277 55.3303 42.2646 54.8556 41.4372C 54.3944 40.5962 53.7568 39.9518 52.9429 39.5042C 52.129 39.043 51.2202 38.8124 50.2164 38.8124C 49.199 38.8124 48.2766 39.0362 47.4492 39.4838C 46.6353 39.9315 45.9842 40.5758 45.4958 41.4168C 45.0211 42.2579 44.7837 43.2277 44.7837 44.3265C 44.7837 45.4388 45.0211 46.4155 45.4958 47.2565C 45.9706 48.084 46.6149 48.7283 47.4288 49.1895C 48.2563 49.6371 49.1719 49.861 50.1757 49.861Z"/>
<path id="path8_fill" d="M 72.1135 37.205L 74.0872 37.205L 81.3309 47.928L 81.3309 37.205L 83.4266 37.205L 83.4266 51.4277L 81.4326 51.4277L 74.189 40.7047L 74.189 51.4277L 72.1135 51.4277L 72.1135 37.205Z"/>
<path id="path9_fill" d="M 102.218 51.7329C 101.404 51.7329 100.597 51.6583 99.7969 51.5091C 99.0102 51.3734 98.3659 51.1835 97.864 50.9394L 97.864 49.0674C 99.1662 49.6778 100.57 49.983 102.076 49.983C 104.192 49.983 105.25 49.2709 105.25 47.8466C 105.25 47.3582 105.135 46.9649 104.904 46.6664C 104.674 46.368 104.341 46.1103 103.907 45.8932C 103.473 45.6626 102.768 45.3506 101.791 44.9573C 100.448 44.4147 99.4782 43.8178 98.8813 43.1667C 98.2845 42.5156 97.986 41.6949 97.986 40.7047C 97.986 39.9586 98.1895 39.3007 98.5965 38.731C 99.0034 38.1477 99.5731 37.7001 100.306 37.3881C 101.038 37.0625 101.879 36.8997 102.829 36.8997C 103.602 36.8997 104.3 36.9608 104.924 37.0829C 105.548 37.205 106.159 37.4016 106.756 37.6729L 106.756 39.4635C 105.576 38.9345 104.382 38.67 103.175 38.67C 102.198 38.67 101.452 38.8463 100.936 39.199C 100.421 39.5517 100.163 40.0536 100.163 40.7047C 100.163 41.1523 100.272 41.5321 100.489 41.8441C 100.719 42.1426 101.052 42.4139 101.486 42.658C 101.933 42.8886 102.591 43.1803 103.459 43.533C 104.423 43.9263 105.182 44.2994 105.738 44.6521C 106.295 45.0047 106.715 45.4388 107 45.9543C 107.298 46.4562 107.448 47.0869 107.448 47.8466C 107.448 49.081 107.007 50.0373 106.125 50.7155C 105.243 51.3938 103.941 51.7329 102.218 51.7329Z"/>
<path id="path10_fill" fill-rule="evenodd" d="M 17.8065 26.4757C 16.6305 25.1319 14.5878 24.9959 13.244 26.1719C 11.9002 27.3478 11.7642 29.3905 12.9402 30.7343C 14.1162 32.0781 16.1589 32.2142 17.5027 31.0382C 18.8465 29.8622 18.9825 27.8195 17.8065 26.4757ZM 19.6314 24.8787C 17.5734 22.5271 13.9987 22.289 11.647 24.347C 9.2954 26.405 9.05734 29.9797 11.1153 32.3313C 13.1733 34.683 16.748 34.921 19.0997 32.863C 21.4513 30.8051 21.6894 27.2304 19.6314 24.8787Z"/>
<path id="path11_fill" fill-rule="evenodd" d="M 35.1443 32.7859C 34.5563 32.114 33.535 32.046 32.8631 32.634C 32.1912 33.2219 32.1231 34.2433 32.7111 34.9152C 33.2991 35.5871 34.3205 35.6551 34.9924 35.0671C 35.6643 34.4791 35.7323 33.4578 35.1443 32.7859ZM 36.9692 31.1889C 35.4992 29.5091 32.9458 29.3391 31.2661 30.8091C 29.5863 32.2791 29.4163 34.8324 30.8863 36.5122C 32.3563 38.1919 34.9096 38.362 36.5894 36.892C 38.2691 35.422 38.4392 32.8686 36.9692 31.1889Z"/>
<path id="path12_fill" fill-rule="evenodd" d="M 18.9779 14.7661C 19.6504 16.1765 21.3389 16.7747 22.7493 16.1022C 24.1596 15.4297 24.7578 13.7412 24.0853 12.3308C 23.4128 10.9205 21.7243 10.3223 20.3139 10.9948L 19.2702 8.8059C 21.8895 7.55698 25.0253 8.66786 26.2742 11.2871C 27.5231 13.9064 26.4122 17.0421 23.793 18.2911C 21.1737 19.54 18.0379 18.4291 16.789 15.8098L 18.9779 14.7661Z"/>
<path id="path13_fill" d="M 22.0658 39.9346C 22.7377 39.3467 23.759 39.4147 24.347 40.0866C 24.935 40.7585 24.867 41.7798 24.1951 42.3678C 23.5232 42.9558 22.5018 42.8878 21.9138 42.2159C 21.3258 41.544 21.3939 40.5226 22.0658 39.9346Z"/>
<path id="path14_fill" d="M 28.9083 23.2052C 29.5802 22.6172 30.6015 22.6852 31.1895 23.3571C 31.7775 24.029 31.7095 25.0503 31.0376 25.6383C 30.3657 26.2263 29.3443 26.1583 28.7563 25.4864C 28.1683 24.8145 28.2364 23.7931 28.9083 23.2052Z"/>
<path id="path15_fill" d="M 10.5818 14.5378C 11.2537 13.9498 12.275 14.0178 12.863 14.6897C 13.451 15.3616 13.383 16.3829 12.7111 16.9709C 12.0392 17.5589 11.0178 17.4909 10.4298 16.819C 9.84185 16.1471 9.90986 15.1258 10.5818 14.5378Z"/>
<path id="path16_fill" d="M 42.9001 28.1468C 43.572 27.5588 44.5934 27.6269 45.1814 28.2988C 45.7694 28.9707 45.7014 29.992 45.0295 30.58C 44.3576 31.168 43.3362 31.1 42.7482 30.4281C 42.1602 29.7562 42.2282 28.7348 42.9001 28.1468Z"/>
<path id="path17_fill" fill-rule="evenodd" d="M 8.83225 6.40152C 19.5826 -3.0064 35.9242 -1.91813 45.3321 8.83225C 54.74 19.5826 53.6517 35.9242 42.9014 45.3321C 32.151 54.74 15.8094 53.6517 6.40152 42.9014C -3.0064 32.151 -1.91813 15.8094 8.83225 6.40152ZM 10.9616 8.83468C 1.55499 17.0666 0.602745 31.3654 8.83468 40.772C 17.0666 50.1786 31.3655 51.1309 40.772 42.8989C 50.1786 34.667 51.1309 20.3682 42.8989 10.9616C 40.9323 8.71435 38.6195 6.94964 36.1098 5.6774C 35.8995 5.82397 35.6934 5.98697 35.4846 6.17152C 32.629 8.6705 32.34 13.0112 34.8389 15.8668C 36.9462 18.2748 40.3658 18.8591 43.0984 17.4814L 44.1901 19.6467C 40.4936 21.5104 35.8677 20.7246 33.0141 17.4638C 29.7148 13.6938 30.0075 8.01043 33.6135 4.5962C 26.1109 1.87144 17.3928 3.20652 10.9616 8.83468ZM 11.647 24.347C 13.9987 22.289 17.5734 22.5271 19.6314 24.8787C 21.6894 27.2304 21.4513 30.8051 19.0997 32.863C 16.748 34.921 13.1733 34.683 11.1153 32.3313C 9.05734 29.9797 9.2954 26.405 11.647 24.347ZM 31.2661 30.8091C 32.9458 29.3391 35.4992 29.5091 36.9692 31.1889C 38.4392 32.8686 38.2691 35.422 36.5894 36.892C 34.9096 38.362 32.3563 38.1919 30.8863 36.5122C 29.4163 34.8324 29.5863 32.2791 31.2661 30.8091ZM 22.7493 16.1022C 21.3389 16.7747 19.6504 16.1765 18.9779 14.7661L 16.789 15.8098C 18.0379 18.4291 21.1737 19.54 23.793 18.2911C 26.4122 17.0421 27.5231 13.9064 26.2742 11.2871C 25.0253 8.66786 21.8895 7.55698 19.2702 8.8059L 20.3139 10.9948C 21.7243 10.3223 23.4128 10.9205 24.0853 12.3308C 24.7578 13.7412 24.1596 15.4297 22.7493 16.1022ZM 22.0658 39.9346C 22.7377 39.3467 23.759 39.4147 24.347 40.0866C 24.935 40.7585 24.867 41.7798 24.1951 42.3678C 23.5232 42.9558 22.5018 42.8878 21.9138 42.2159C 21.3258 41.544 21.3939 40.5226 22.0658 39.9346ZM 28.9083 23.2052C 29.5802 22.6172 30.6015 22.6852 31.1895 23.3571C 31.7775 24.029 31.7095 25.0503 31.0376 25.6383C 30.3657 26.2263 29.3443 26.1583 28.7563 25.4864C 28.1683 24.8145 28.2364 23.7931 28.9083 23.2052ZM 10.5818 14.5378C 11.2537 13.9498 12.275 14.0178 12.863 14.6897C 13.451 15.3616 13.383 16.3829 12.7111 16.9709C 12.0392 17.5589 11.0178 17.4909 10.4298 16.819C 9.84185 16.1471 9.90986 15.1258 10.5818 14.5378ZM 42.9001 28.1468C 43.572 27.5588 44.5934 27.6269 45.1814 28.2988C 45.7694 28.9707 45.7014 29.992 45.0295 30.58C 44.3576 31.168 43.3362 31.1 42.7482 30.4281C 42.1602 29.7562 42.2282 28.7348 42.9001 28.1468ZM 13.244 26.1719C 14.5878 24.9959 16.6305 25.1319 17.8065 26.4757C 18.9825 27.8195 18.8465 29.8622 17.5027 31.0382C 16.1589 32.2142 14.1162 32.0781 12.9402 30.7343C 11.7642 29.3905 11.9002 27.3478 13.244 26.1719ZM 35.1443 32.7859C 34.5563 32.114 33.535 32.046 32.8631 32.634C 32.1912 33.2219 32.1231 34.2433 32.7111 34.9152C 33.2991 35.5871 34.3205 35.6551 34.9924 35.0671C 35.6643 34.4791 35.7323 33.4578 35.1443 32.7859Z"/>
</defs>
</svg>
