<svg width="106" height="50" viewBox="0 0 106 50" version="1.1" xmlns="http://www.w3.org/2000/svg" xmlns:xlink="http://www.w3.org/1999/xlink">
<title>logo-text</title>
<desc>Created using Figma</desc>
<g id="Canvas" transform="matrix(0.943396 0 0 0.943396 -1156.6 -287.736)">
<g id="logo-text">
<use xlink:href="#path0_fill" transform="translate(1226.49 305.67)" fill="#0C0D1F"/>
<use xlink:href="#path1_fill" transform="translate(1226.49 305.67)" fill="#0C0D1F"/>
<use xlink:href="#path2_fill" transform="translate(1226.49 305.67)" fill="#0C0D1F"/>
<use xlink:href="#path3_fill" transform="translate(1226.49 305.67)" fill="#0C0D1F"/>
<use xlink:href="#path4_fill" transform="translate(1226.49 305.67)" fill="#0C0D1F"/>
<use xlink:href="#path5_fill" transform="translate(1226.49 305.67)" fill="#0C0D1F"/>
<use xlink:href="#path6_fill" transform="translate(1226.49 305.67)" fill="#0C0D1F"/>
<use xlink:href="#path7_fill" transform="translate(1226.49 305.67)" fill="#0C0D1F"/>
<use xlink:href="#path8_fill" transform="translate(1226.49 305.67)" fill="#0C0D1F"/>
<use xlink:href="#path9_fill" transform="translate(1226.49 305.67)" fill="#0C0D1F"/>
</g>
</g>
<defs>
<path id="path0_fill" d="M 4.91725 21.5342L 15.43 21.5342L 15.43 24.298L 1.62778 24.298L 1.62778 0L 4.91725 0L 4.91725 21.5342Z"/>
<path id="path1_fill" d="M 28.492 21.6868C 29.498 21.6868 30.3967 21.5172 31.188 21.1781C 31.9793 20.839 32.6462 20.3642 33.1888 19.7538C 33.7427 19.1434 34.161 18.4143 34.4436 17.5665C 34.7375 16.7187 34.8844 15.7861 34.8844 14.7687L 34.8844 0L 38.1569 0L 38.1569 14.7687C 38.1569 16.1704 37.9309 17.4704 37.4787 18.6686C 37.0378 19.8668 36.3992 20.9068 35.5627 21.7885C 34.7375 22.6589 33.7258 23.3428 32.5275 23.8402C 31.3293 24.3376 29.9841 24.5863 28.492 24.5863C 26.9999 24.5863 25.6547 24.3376 24.4564 23.8402C 23.2582 23.3428 22.2409 22.6589 21.4044 21.7885C 20.5679 20.9068 19.9235 19.8668 19.4714 18.6686C 19.0305 17.4704 18.8101 16.1704 18.8101 14.7687L 18.8101 0L 22.0826 0L 22.0826 14.7518C 22.0826 15.7691 22.2239 16.7017 22.5065 17.5495C 22.8004 18.3973 23.2187 19.1264 23.7613 19.7368C 24.3151 20.3473 24.9877 20.8277 25.779 21.1781C 26.5816 21.5172 27.4859 21.6868 28.492 21.6868Z"/>
<path id="path2_fill" d="M 45.5148 0C 45.8087 0 46.0235 0.0395641 46.1591 0.118692C 46.3061 0.186517 46.47 0.333469 46.6509 0.55955L 60.7244 18.8721C 60.6905 18.5782 60.6679 18.2956 60.6566 18.0243C 60.6452 17.7417 60.6396 17.4704 60.6396 17.2104L 60.6396 0L 63.5221 0L 63.5221 24.298L 61.8604 24.298C 61.6004 24.298 61.38 24.2528 61.1991 24.1624C 61.0296 24.0719 60.86 23.9193 60.6905 23.7046L 46.6339 5.40898C 46.6565 5.69158 46.6735 5.96853 46.6848 6.23983C 46.6961 6.51112 46.7017 6.75981 46.7017 6.98589L 46.7017 24.298L 43.8192 24.298L 43.8192 0L 45.5148 0Z"/>
<path id="path3_fill" d="M 89.4432 24.298L 86.8997 24.298C 86.6058 24.298 86.3685 24.2245 86.1876 24.0776C 86.0067 23.9306 85.8711 23.7441 85.7806 23.518L 83.5085 17.6512L 72.6058 17.6512L 70.3337 23.518C 70.2546 23.7215 70.1189 23.9024 69.9267 24.0606C 69.7346 24.2189 69.4972 24.298 69.2146 24.298L 66.6712 24.298L 76.387 0L 79.7273 0L 89.4432 24.298ZM 73.5214 15.2774L 82.5929 15.2774L 78.7778 5.39202C 78.5291 4.78161 78.2861 4.01858 78.0487 3.10296C 77.9243 3.56642 77.8 3.99597 77.6757 4.39162C 77.5626 4.77595 77.4496 5.11507 77.3365 5.40898L 73.5214 15.2774Z"/>
<path id="path4_fill" d="M 96.1132 14.1583L 96.1132 24.298L 92.8407 24.298L 92.8407 0L 99.7079 0C 101.245 0 102.573 0.158256 103.693 0.474769C 104.812 0.779978 105.733 1.22649 106.456 1.8143C 107.191 2.40211 107.734 3.11426 108.084 3.95076C 108.435 4.77595 108.61 5.70288 108.61 6.73155C 108.61 7.59066 108.474 8.39324 108.203 9.13931C 107.932 9.88538 107.536 10.558 107.016 11.1571C 106.507 11.7449 105.88 12.2479 105.134 12.6662C 104.399 13.0844 103.563 13.4009 102.624 13.6157C 103.031 13.8531 103.393 14.1979 103.71 14.65L 110.797 24.298L 107.881 24.298C 107.282 24.298 106.841 24.0663 106.558 23.6028L 100.251 14.9213C 100.058 14.65 99.8492 14.4579 99.6231 14.3448C 99.3971 14.2205 99.0579 14.1583 98.6058 14.1583L 96.1132 14.1583ZM 96.1132 11.7675L 99.5553 11.7675C 100.516 11.7675 101.358 11.6545 102.082 11.4284C 102.817 11.191 103.427 10.8632 103.913 10.4449C 104.41 10.0154 104.783 9.50669 105.032 8.91888C 105.281 8.33107 105.405 7.68109 105.405 6.96894C 105.405 5.52202 104.925 4.43118 103.964 3.69642C 103.014 2.96166 101.596 2.59428 99.7079 2.59428L 96.1132 2.59428L 96.1132 11.7675Z"/>
<path id="path5_fill" d="M 0 37.205L 2.09577 37.205L 2.09577 51.4277L 0 51.4277L 0 37.205Z"/>
<path id="path6_fill" d="M 24.0789 51.7329C 22.6139 51.7329 21.3117 51.4277 20.1722 50.8173C 19.0328 50.2069 18.1443 49.3455 17.5068 48.2332C 16.8692 47.1073 16.5504 45.8051 16.5504 44.3265C 16.5504 42.8479 16.8692 41.5457 17.5068 40.4198C 18.1443 39.2939 19.0328 38.4258 20.1722 37.8154C 21.3117 37.205 22.6139 36.8997 24.0789 36.8997C 26.0323 36.8997 27.6668 37.3949 28.9826 38.3851L 28.9826 40.3791C 27.8025 39.3346 26.2289 38.8124 24.262 38.8124C 23.1633 38.8124 22.1866 39.0362 21.332 39.4838C 20.491 39.9315 19.8331 40.5758 19.3584 41.4168C 18.8836 42.2443 18.6462 43.2142 18.6462 44.3265C 18.6462 45.4388 18.8836 46.4155 19.3584 47.2565C 19.8467 48.0975 20.5114 48.7419 21.3524 49.1895C 22.207 49.6371 23.1769 49.861 24.262 49.861C 25.2658 49.861 26.1611 49.7321 26.9479 49.4744C 27.7482 49.2031 28.4875 48.7758 29.1657 48.1925L 29.1657 50.2069C 27.9449 51.2242 26.2493 51.7329 24.0789 51.7329Z"/>
<path id="path7_fill" d="M 50.1757 51.7329C 48.765 51.7329 47.4899 51.4277 46.3504 50.8173C 45.211 50.1933 44.3157 49.3184 43.6646 48.1925C 43.0135 47.0666 42.6879 45.7779 42.6879 44.3265C 42.6879 42.8751 43.0135 41.5864 43.6646 40.4605C 44.3157 39.3346 45.211 38.4597 46.3504 37.8357C 47.4899 37.2117 48.765 36.8997 50.1757 36.8997C 51.5864 36.8997 52.8615 37.2117 54.001 37.8357C 55.1404 38.4597 56.0357 39.3346 56.6868 40.4605C 57.3379 41.5864 57.6635 42.8751 57.6635 44.3265C 57.6635 45.7779 57.3379 47.0666 56.6868 48.1925C 56.0357 49.3184 55.1404 50.1933 54.001 50.8173C 52.8615 51.4277 51.5864 51.7329 50.1757 51.7329ZM 50.1757 49.861C 51.1795 49.861 52.0883 49.6371 52.9022 49.1895C 53.7297 48.7283 54.3808 48.084 54.8556 47.2565C 55.3303 46.4155 55.5677 45.4388 55.5677 44.3265C 55.5677 43.2277 55.3303 42.2646 54.8556 41.4372C 54.3944 40.5962 53.7568 39.9518 52.9429 39.5042C 52.129 39.043 51.2202 38.8124 50.2164 38.8124C 49.199 38.8124 48.2766 39.0362 47.4492 39.4838C 46.6353 39.9315 45.9842 40.5758 45.4958 41.4168C 45.0211 42.2579 44.7837 43.2277 44.7837 44.3265C 44.7837 45.4388 45.0211 46.4155 45.4958 47.2565C 45.9706 48.084 46.6149 48.7283 47.4288 49.1895C 48.2563 49.6371 49.1719 49.861 50.1757 49.861Z"/>
<path id="path8_fill" d="M 72.1135 37.205L 74.0872 37.205L 81.3309 47.928L 81.3309 37.205L 83.4266 37.205L 83.4266 51.4277L 81.4326 51.4277L 74.189 40.7047L 74.189 51.4277L 72.1135 51.4277L 72.1135 37.205Z"/>
<path id="path9_fill" d="M 102.218 51.7329C 101.404 51.7329 100.597 51.6583 99.7969 51.5091C 99.0102 51.3734 98.3659 51.1835 97.864 50.9394L 97.864 49.0674C 99.1662 49.6778 100.57 49.983 102.076 49.983C 104.192 49.983 105.25 49.2709 105.25 47.8466C 105.25 47.3582 105.135 46.9649 104.904 46.6664C 104.674 46.368 104.341 46.1103 103.907 45.8932C 103.473 45.6626 102.768 45.3506 101.791 44.9573C 100.448 44.4147 99.4782 43.8178 98.8813 43.1667C 98.2845 42.5156 97.986 41.6949 97.986 40.7047C 97.986 39.9586 98.1895 39.3007 98.5965 38.731C 99.0034 38.1477 99.5731 37.7001 100.306 37.3881C 101.038 37.0625 101.879 36.8997 102.829 36.8997C 103.602 36.8997 104.3 36.9608 104.924 37.0829C 105.548 37.205 106.159 37.4016 106.756 37.6729L 106.756 39.4635C 105.576 38.9345 104.382 38.67 103.175 38.67C 102.198 38.67 101.452 38.8463 100.936 39.199C 100.421 39.5517 100.163 40.0536 100.163 40.7047C 100.163 41.1523 100.272 41.5321 100.489 41.8441C 100.719 42.1426 101.052 42.4139 101.486 42.658C 101.933 42.8886 102.591 43.1803 103.459 43.533C 104.423 43.9263 105.182 44.2994 105.738 44.6521C 106.295 45.0047 106.715 45.4388 107 45.9543C 107.298 46.4562 107.448 47.0869 107.448 47.8466C 107.448 49.081 107.007 50.0373 106.125 50.7155C 105.243 51.3938 103.941 51.7329 102.218 51.7329Z"/>
</defs>
</svg>
