<svg width="20" height="24" viewBox="0 0 20 24" xmlns="http://www.w3.org/2000/svg" xmlns:xlink="http://www.w3.org/1999/xlink"><title>accessible</title><desc>Created using Figma</desc><g transform="translate(.75)"><use xlink:href="#a"/><use xlink:href="#b"/></g><defs><path id="a" d="M6.906 5.928a3.001 3.001 0 1 0-2.179-.343l1.2 4.18.96 3.348.208.724h5.64l2.014 6.015.28.836.863-.172 2.803-.558-.39-1.962-1.94.386-1.962-5.862-.229-.683H8.602l-.387-1.349h4.118v-2H7.641l-.735-2.56z"/><path id="b" d="M4.677 9.036l.288 1.004.27.943A5.813 5.813 0 0 0 2 16.186C2 19.389 4.61 22 7.848 22c2.421 0 4.491-1.46 5.382-3.534l.57 1.704.264.788A7.848 7.848 0 0 1 7.848 24C3.514 24 0 20.502 0 16.186c0-3.192 1.922-5.937 4.677-7.15z"/></defs></svg>