<svg width="24" height="24" viewBox="0 0 24 24" xmlns="http://www.w3.org/2000/svg" xmlns:xlink="http://www.w3.org/1999/xlink"><title>alarm</title><desc>Created using Figma</desc><g transform="translate(.327 .1)"><use xlink:href="#a"/><use xlink:href="#b"/><use xlink:href="#c"/><use xlink:href="#d"/></g><defs><path id="a" d="M6.176 1.8a12.224 12.224 0 0 0-4.58 3.76L0 4.355A15.076 15.076 0 0 1 5.305 0l.87 1.8z"/><path id="b" d="M21.75 5.56a12.224 12.224 0 0 0-4.58-3.76l.87-1.8a15.077 15.077 0 0 1 5.306 4.355L21.75 5.56z"/><path id="c" d="M10.673 6.312v7.425l.608.26 4.758 2.029.784-1.84-4.15-1.77V6.312h-2z"/><path id="d" fill-rule="evenodd" d="M11.673 23.9c6.006 0 10.875-4.846 10.875-10.823 0-5.978-4.869-10.824-10.875-10.824S.798 7.1.798 13.077c0 5.977 4.869 10.823 10.875 10.823zm0-2c4.91 0 8.875-3.96 8.875-8.823 0-4.864-3.964-8.824-8.875-8.824-4.91 0-8.875 3.96-8.875 8.824S6.763 21.9 11.673 21.9z"/></defs></svg>