<svg width="24" height="22" viewBox="0 0 24 22" xmlns="http://www.w3.org/2000/svg" xmlns:xlink="http://www.w3.org/1999/xlink"><title>bug</title><desc>Created using Figma</desc><g><use xlink:href="#a"/><use xlink:href="#b"/></g><defs><path id="a" d="M12 2a4.002 4.002 0 0 0-3.827 2.831 9.208 9.208 0 0 0-2.169 1.391 6 6 0 1 1 11.992 0 9.208 9.208 0 0 0-2.17-1.39A4.002 4.002 0 0 0 12 2z"/><path id="b" fill-rule="evenodd" d="M5.392 8.343A8.188 8.188 0 0 1 12 5a8.188 8.188 0 0 1 6.608 3.343l2.283-.76 1.015-2.03 1.788.894-1.2 2.4-.185.37-.393.132-2.314.771c.266.655.45 1.353.538 2.08H24v2h-3.86a8.146 8.146 0 0 1-.538 2.08l2.314.771.393.131.185.37 1.2 2.4-1.788.895-1.015-2.03-2.283-.76A8.188 8.188 0 0 1 12 21.4a8.189 8.189 0 0 1-6.608-3.343l-2.283.76-1.015 2.03-1.788-.894 1.2-2.4.185-.37.393-.132 2.314-.771a8.145 8.145 0 0 1-.538-2.08H0v-2h3.86a8.145 8.145 0 0 1 .538-2.08L2.084 9.35l-.393-.131-.185-.37-1.2-2.4 1.788-.895 1.015 2.03 2.283.76zM12 7a6.2 6.2 0 0 0-1 12.32V10.8h2v8.52A6.202 6.202 0 0 0 12 7z"/></defs></svg>