<svg width="24" height="24" viewBox="0 0 24 24" xmlns="http://www.w3.org/2000/svg" xmlns:xlink="http://www.w3.org/1999/xlink"><title>explore</title><desc>Created using Figma</desc><g><use xlink:href="#a"/><use xlink:href="#b"/></g><defs><path id="a" fill-rule="evenodd" d="M17.425 7.88c.314-.817-.488-1.62-1.305-1.305L9.641 9.067l-.415.16-.16.414-2.491 6.479c-.314.817.488 1.62 1.305 1.305l6.479-2.492.415-.16.16-.414 2.491-6.479zm-7.044 3.915l1.824 1.824-2.964 1.14 1.14-2.964z"/><path id="b" fill-rule="evenodd" d="M24 12c0 6.627-5.373 12-12 12S0 18.627 0 12 5.373 0 12 0s12 5.373 12 12zm-13 9.95V20.5h2v1.45A10.003 10.003 0 0 0 21.95 13H20.5v-2h1.45A10.003 10.003 0 0 0 13 2.05V3.5h-2V2.05A10.003 10.003 0 0 0 2.05 11H3.5v2H2.05A10.003 10.003 0 0 0 11 21.95z"/></defs></svg>