<svg width="24" height="23" viewBox="0 0 24 23" xmlns="http://www.w3.org/2000/svg" xmlns:xlink="http://www.w3.org/1999/xlink"><title>favorite</title><desc>Created using Figma</desc><use xlink:href="#a" transform="translate(.396 .794)"/><defs><path id="a" fill-rule="evenodd" d="M12.554 2.894L11.604 0l-.95 2.894-1.555 4.735a1 1 0 0 1-.95.688H0l2.52 1.812 4.064 2.922a1 1 0 0 1 .366 1.124L5.4 18.894l-.957 2.915 2.491-1.791 4.086-2.938.002-.002a1 1 0 0 1 1.163 0l.003.002 4.085 2.938 2.491 1.79-.957-2.914-1.55-4.72a1 1 0 0 1 .367-1.123l4.064-2.922 2.52-1.812H15.059a1 1 0 0 1-.949-.684l-.001-.004-1.555-4.735zm-1.555 5.359l.605-1.842.605 1.842.001.005.45 1.371a1 1 0 0 0 .95.688H17l-1.543 1.11-.004.002-1.186.853a1 1 0 0 0-.367 1.124l.456 1.387.002.005.592 1.805-1.595-1.147-1.167-.84a1 1 0 0 0-1.168 0l-1.164.838-.003.002-1.595 1.147.592-1.805.002-.005.455-1.387a1 1 0 0 0-.366-1.124l-1.187-.853-.003-.002-1.543-1.11H9.598a1 1 0 0 0 .95-.688l.451-1.376z"/></defs></svg>