<svg width="24" height="23" viewBox="0 0 24 23" xmlns="http://www.w3.org/2000/svg" xmlns:xlink="http://www.w3.org/1999/xlink"><title>favorited</title><desc>Created using Figma</desc><use xlink:href="#a" transform="translate(.396 .794)"/><defs><path id="a" d="M12.554 2.894L11.604 0l-.95 2.894-1.555 4.735a1 1 0 0 1-.95.688H0l2.52 1.812 4.064 2.922a1 1 0 0 1 .366 1.124L5.4 18.894l-.957 2.915 2.491-1.791 4.086-2.938a1 1 0 0 1 1.168 0l4.085 2.938 2.491 1.79-.957-2.914-1.55-4.72a1 1 0 0 1 .367-1.123l4.064-2.922 2.52-1.812H15.059a1 1 0 0 1-.95-.688l-1.555-4.735z"/></defs></svg>