<svg width="24" height="24" viewBox="0 0 24 24" xmlns="http://www.w3.org/2000/svg" xmlns:xlink="http://www.w3.org/1999/xlink"><title>history</title><desc>Created using Figma</desc><g><use xlink:href="#a"/><use xlink:href="#b"/></g><defs><path id="a" d="M12 2C6.477 2 2 6.477 2 12a9.991 9.991 0 0 0 4.513 8.362l.337-.585.906-1.568.468 1.749.55 2.049.194.724-.725.194-2.049.55-1.749.468.905-1.568.162-.279A11.99 11.99 0 0 1 0 12C0 5.373 5.373 0 12 0s12 5.373 12 12-5.373 12-12 12v-2c5.523 0 10-4.477 10-10S17.523 2 12 2z"/><path id="b" d="M11 13V6h2v6.323l4.371 1.748-.742 1.857-5-2-.629-.251V13z"/></defs></svg>