<svg width="24" height="24" viewBox="0 0 24 24" xmlns="http://www.w3.org/2000/svg" xmlns:xlink="http://www.w3.org/1999/xlink"><title>info</title><desc>Created using Figma</desc><g><use xlink:href="#a"/><use xlink:href="#b"/><use xlink:href="#c"/></g><defs><path id="a" d="M11.25 6.75V8.5H13V6.75h-1.75z"/><path id="b" d="M9.75 17.25V16h1.5v-5h-1.5V9.75H13V16h1.25v1.25h-4.5z"/><path id="c" fill-rule="evenodd" d="M24 12c0 6.627-5.373 12-12 12S0 18.627 0 12 5.373 0 12 0s12 5.373 12 12zm-2 0c0 5.523-4.477 10-10 10S2 17.523 2 12 6.477 2 12 2s10 4.477 10 10z"/></defs></svg>