<svg width="26" height="24" viewBox="0 0 26 24" xmlns="http://www.w3.org/2000/svg" xmlns:xlink="http://www.w3.org/1999/xlink"><title>invisible</title><desc>Created using Figma</desc><g transform="translate(.988 .293)"><use xlink:href="#a"/><use xlink:href="#b"/><use xlink:href="#c"/><use xlink:href="#d"/><use xlink:href="#e"/></g><defs><path id="a" d="M23.72 1.414l-22 22L.304 22l22-22 1.414 1.414z"/><path id="b" d="M16.418 4.473a12.975 12.975 0 0 0-4.406-.766c-5.248 0-9.768 3.11-11.82 7.583L0 11.707l.191.417a13.047 13.047 0 0 0 3.779 4.797l1.425-1.425a11.05 11.05 0 0 1-3.184-3.789 11 11 0 0 1 9.801-6c.971 0 1.913.126 2.81.362l1.596-1.596z"/><path id="c" d="M9.203 17.345a11.02 11.02 0 0 0 2.81.362 11 11 0 0 0 9.8-6 11.048 11.048 0 0 0-3.184-3.788l1.426-1.426a13.048 13.048 0 0 1 3.778 4.797l.191.417-.191.417c-2.053 4.473-6.573 7.583-11.82 7.583-1.547 0-3.031-.27-4.407-.765l1.597-1.597z"/><path id="d" d="M12.012 7.707c.358 0 .706.047 1.036.136L10.6 10.29l-.004.003-2.448 2.45a4 4 0 0 1 3.864-5.036z"/><path id="e" d="M13.425 13.123l.003-.003 2.449-2.449a4.005 4.005 0 0 1-4.9 4.9l2.448-2.448z"/></defs></svg>