<svg width="24" height="24" viewBox="0 0 24 24" xmlns="http://www.w3.org/2000/svg" xmlns:xlink="http://www.w3.org/1999/xlink"><title>label</title><desc>Created using Figma</desc><g><use xlink:href="#a"/><use xlink:href="#b"/></g><defs><path id="a" fill-rule="evenodd" d="M17.61 3.44a2.95 2.95 0 1 0 0 5.899 2.95 2.95 0 0 0 0-5.898zm-.983 2.95a.983.983 0 1 1 1.966 0 .983.983 0 0 1-1.966 0z"/><path id="b" fill-rule="evenodd" d="M14.607 0h-.408l-.287.288L.694 13.504 0 14.2l.695.696 8.41 8.41.696.695.695-.695 13.216-13.216L24 9.8V0h-9.393zM2.78 14.2L15.014 1.965h7.02v7.02L9.8 21.22 2.78 14.2z"/></defs></svg>