<svg width="24" height="24" viewBox="0 0 24 24" xmlns="http://www.w3.org/2000/svg" xmlns:xlink="http://www.w3.org/1999/xlink"><title>language</title><desc>Created using Figma</desc><use xlink:href="#a"/><defs><path id="a" fill-rule="evenodd" d="M12 0c6.627 0 12 5.373 12 12s-5.373 12-12 12S0 18.627 0 12 5.373 0 12 0zm0 22c.261 0 1.14-.318 2.071-2.348.194-.417.37-.863.529-1.335-.893-.193-1.788-.32-2.6-.317-.812-.004-1.707.124-2.6.317.158.473.335.918.529 1.335C10.86 21.682 11.74 22 12 22zm-3.106-5.61A21.222 21.222 0 0 1 8.516 13h6.968a21.22 21.22 0 0 1-.378 3.39c-1.045-.226-2.13-.386-3.106-.39-.977.004-2.06.164-3.106.39zm7.631 2.432c-.309.974-.682 1.843-1.106 2.578a9.993 9.993 0 0 0 3.173-1.88 33.528 33.528 0 0 0-2.067-.698zm3.522-.884c-.126-.05-.286-.114-.47-.184a36.732 36.732 0 0 0-2.552-.869c.246-1.203.404-2.511.456-3.885h4.47a9.947 9.947 0 0 1-1.904 4.938zM6.975 16.885a36.71 36.71 0 0 0-3.022 1.053A9.947 9.947 0 0 1 2.05 13h4.47a24 24 0 0 0 .456 3.885zM5.408 19.52a33.54 33.54 0 0 1 2.067-.697c.309.974.682 1.843 1.106 2.578a9.994 9.994 0 0 1-3.173-1.88zM8.516 11h6.968a21.222 21.222 0 0 0-.378-3.39c-1.045.226-2.13.386-3.106.39-.977-.004-2.06-.164-3.106-.39A21.223 21.223 0 0 0 8.516 11zM9.4 5.683c.158-.472.335-.918.529-1.335C10.86 2.318 11.74 2 12 2c.261 0 1.14.318 2.071 2.348.194.417.37.863.529 1.335-.893.193-1.788.32-2.6.317-.812.004-1.707-.124-2.6-.317zm7.625 1.432c.246 1.203.404 2.511.456 3.885h4.47a9.947 9.947 0 0 0-1.904-4.938c-.126.05-.286.114-.47.184a36.718 36.718 0 0 1-2.552.869zm1.567-2.635a33.641 33.641 0 0 1-2.067.698c-.309-.974-.682-1.843-1.106-2.578a9.993 9.993 0 0 1 3.173 1.88zm-11.117.698a34.1 34.1 0 0 1-2.067-.698A9.994 9.994 0 0 1 8.58 2.6c-.424.735-.797 1.604-1.106 2.578zm-3.522.884c.126.05.286.114.47.184a36.697 36.697 0 0 0 2.552.869A24 24 0 0 0 6.519 11h-4.47a9.947 9.947 0 0 1 1.904-4.938z"/></defs></svg>