<svg width="20" height="24" viewBox="0 0 20 24" xmlns="http://www.w3.org/2000/svg" xmlns:xlink="http://www.w3.org/1999/xlink"><title>lock</title><desc>Created using Figma</desc><g><use xlink:href="#a"/><use xlink:href="#b"/></g><defs><path id="a" d="M10.764 17.291a1.5 1.5 0 1 0-1.528 0L8.5 19.5h3l-.736-2.209z"/><path id="b" fill-rule="evenodd" d="M2 10V8a8 8 0 0 1 16 0v2h1a1 1 0 0 1 1 1v12a1 1 0 0 1-1 1H1a1 1 0 0 1-1-1V11a1 1 0 0 1 1-1h1zm2-2a6 6 0 1 1 12 0v2H4V8zm-2 4v10h16V12H2z"/></defs></svg>