<svg width="24" height="22" viewBox="0 0 24 22" xmlns="http://www.w3.org/2000/svg" xmlns:xlink="http://www.w3.org/1999/xlink"><title>print</title><desc>Created using Figma</desc><g transform="translate(0 .25)"><use xlink:href="#a"/><use xlink:href="#b"/><use xlink:href="#c"/><use xlink:href="#d"/><use xlink:href="#e"/></g><defs><path id="a" d="M5 0h14v4h-2V2H7v2H5V0z"/><path id="b" d="M1 5a1 1 0 0 0-1 1v9a1 1 0 0 0 1 1h3v-2H2V7h20v7h-2v2h3a1 1 0 0 0 1-1V6a1 1 0 0 0-1-1H1z"/><path id="c" d="M5 12v9.5h14V12h-2v7.5H7V12H5z"/><path id="d" d="M8.5 15.25h7v-1h-7v1z"/><path id="e" d="M8.5 17.75h7v-1h-7v1z"/></defs></svg>