<svg width="24" height="24" viewBox="0 0 24 24" xmlns="http://www.w3.org/2000/svg" xmlns:xlink="http://www.w3.org/1999/xlink"><title>settings</title><desc>Created using Figma</desc><g><use xlink:href="#a"/><use xlink:href="#b"/></g><defs><path id="a" fill-rule="evenodd" d="M16 12a4 4 0 1 1-8 0 4 4 0 0 1 8 0zm-2 0a2 2 0 1 1-4 0 2 2 0 0 1 4 0z"/><path id="b" fill-rule="evenodd" d="M19 2l-4.5-2-1.198 1.438L12 3l-1.302-1.562L9.5 0 5 2v4l-4 .5-1 5L3 14l-2 3.5 3.5 4 1.66-.711L8 20l.703 1.875L9.5 24h5l.797-2.125L16 20l1.84.789 1.66.711 3.5-4-2-3.5 3-2.5-1-5-4-.5V2zm-8.536 2.28a2 2 0 0 0 3.072 0l1.533-1.839L17 3.3V6a2 2 0 0 0 1.752 1.985l2.57.32.483 2.42-2.085 1.739a2 2 0 0 0-.456 2.528l1.293 2.263-1.605 1.834-2.164-.927a2 2 0 0 0-2.66 1.136L13.113 22h-2.228l-1.013-2.702a2 2 0 0 0-2.66-1.136l-2.165.927-1.605-1.834 1.293-2.263a2 2 0 0 0-.456-2.528l-2.085-1.739.483-2.42 2.57-.32A2 2 0 0 0 7 6V3.3l1.931-.859 1.533 1.84z"/></defs></svg>