<svg width="24" height="22" viewBox="0 0 24 22" xmlns="http://www.w3.org/2000/svg" xmlns:xlink="http://www.w3.org/1999/xlink"><title>thumbs-down</title><desc>Created using Figma</desc><use xlink:href="#a" transform="matrix(1 0 0 -1 .5 22)"/><defs><path id="a" fill-rule="evenodd" d="M9.2 1.032A1.5 1.5 0 0 1 10.625 0H12.5A1.5 1.5 0 0 1 14 1.5V7h5.293a1.5 1.5 0 0 1 1.06.44l2.208 2.206A1.5 1.5 0 0 1 23 10.707v6.586a1.5 1.5 0 0 1-.44 1.06l-3.206 3.208a1.5 1.5 0 0 1-1.061.439H8.68a2.088 2.088 0 0 1-.96-.348L6.494 20.63A1.5 1.5 0 0 1 5 22H1.5A1.5 1.5 0 0 1 0 20.5v-12A1.5 1.5 0 0 1 1.5 7H5a1.5 1.5 0 0 1 1.455 1.135l.617-.615L9.2 1.032zm-2.7 9.883v7.117L8.862 20h9.224L21 17.086v-6.172L19.086 9H13.5A1.5 1.5 0 0 1 12 7.5V2h-1.012L8.934 8.257a2.104 2.104 0 0 1-.366.594L6.5 10.915zM2 9v11h2.5V9H2z"/></defs></svg>