<svg width="26" height="24" viewBox="0 0 26 24" xmlns="http://www.w3.org/2000/svg" xmlns:xlink="http://www.w3.org/1999/xlink"><title>visible</title><desc>Created using Figma</desc><g transform="translate(.988)"><use xlink:href="#a"/><use xlink:href="#b"/><use xlink:href="#c"/></g><defs><path id="a" fill-rule="evenodd" d="M12.012 8a4 4 0 1 0 0 8 4 4 0 0 0 0-8zm-2 4a2 2 0 1 1 4 0 2 2 0 0 1-4 0z"/><path id="b" fill-rule="evenodd" d="M12.012 4C6.764 4 2.244 7.11.192 11.583l-.18.39L0 12l.012.027.18.39C2.243 16.89 6.763 20 12.011 20s9.768-3.11 11.821-7.583l.18-.39.011-.027-.012-.027-.179-.39C21.78 7.11 17.26 4 12.013 4zm0 14a11 11 0 0 1-9.8-6 11 11 0 0 1 9.8-6 11 11 0 0 1 9.801 6 11 11 0 0 1-9.8 6z"/><path id="c" fill-rule="evenodd" d="M.012 11.973v.054l.18.39C2.243 16.89 6.763 20 12.011 20s9.768-3.11 11.821-7.583l.18-.39v-.054l-.18-.39C21.78 7.11 17.26 4 12.013 4 6.763 4 2.243 7.11.19 11.583l-.179.39zm12 6.027a11 11 0 0 1-9.8-6 11 11 0 0 1 9.8-6 11 11 0 0 1 9.801 6 11 11 0 0 1-9.8 6zm-4-6a4 4 0 1 1 8 0 4 4 0 0 1-8 0zm2 0a2 2 0 1 1 4 0 2 2 0 0 1-4 0z"/></defs></svg>