<svg width="24" height="21" viewBox="0 0 24 21" xmlns="http://www.w3.org/2000/svg" xmlns:xlink="http://www.w3.org/1999/xlink"><title>warning</title><desc>Created using Figma</desc><g transform="translate(.361 .008)"><use xlink:href="#a"/><use xlink:href="#b"/><use xlink:href="#c"/></g><defs><path id="a" d="M10.68 13.591h1.924l.175-5.599h-2.275l.175 5.6z"/><path id="b" d="M10.68 14.291v1.925h1.924v-1.925h-1.925z"/><path id="c" fill-rule="evenodd" d="M10.487 1.508l.016-.027.281-.492.421-.737a.5.5 0 0 1 .868 0l.421.737.281.492.016.027 9.705 16.984.014.023.268.47.434.76a.5.5 0 0 1-.434.747H.5a.5.5 0 0 1-.434-.748l.434-.76.268-.469.013-.023 9.705-16.984zM3.086 18.492l8.553-14.969 8.554 14.97H3.086z"/></defs></svg>