<svg width="50" height="50" viewBox="0 0 50 50" version="1.1" xmlns="http://www.w3.org/2000/svg" xmlns:xlink="http://www.w3.org/1999/xlink">
<title>logo-icon</title>
<desc>Created using Figma</desc>
<g id="Canvas" transform="matrix(0.943396 0 0 0.943396 -362.264 -21.6981)">
<g id="logo-icon">
<use xlink:href="#path0_fill" transform="translate(384 23.9364)" fill="#FFFFFF"/>
<use xlink:href="#path1_fill" transform="translate(384 23.9364)" fill="#FFFFFF"/>
<use xlink:href="#path2_fill" transform="translate(384 23.9364)" fill="#FFFFFF"/>
<use xlink:href="#path3_fill" transform="translate(384 23.9364)" fill="#FFFFFF"/>
<use xlink:href="#path4_fill" transform="translate(384 23.9364)" fill="#FFFFFF"/>
<use xlink:href="#path5_fill" transform="translate(384 23.9364)" fill="#FFFFFF"/>
<use xlink:href="#path6_fill" transform="translate(384 23.9364)" fill="#FFFFFF"/>
<use xlink:href="#path7_fill" transform="translate(384 23.9364)" fill="#FFFFFF"/>
</g>
</g>
<defs>
<path id="path0_fill" fill-rule="evenodd" d="M 17.8065 26.4757C 16.6305 25.1319 14.5878 24.9959 13.244 26.1719C 11.9002 27.3478 11.7642 29.3905 12.9402 30.7343C 14.1162 32.0781 16.1589 32.2142 17.5027 31.0382C 18.8465 29.8622 18.9825 27.8195 17.8065 26.4757ZM 19.6314 24.8787C 17.5734 22.5271 13.9987 22.289 11.647 24.347C 9.2954 26.405 9.05734 29.9797 11.1153 32.3313C 13.1733 34.683 16.748 34.921 19.0997 32.863C 21.4513 30.8051 21.6894 27.2304 19.6314 24.8787Z"/>
<path id="path1_fill" fill-rule="evenodd" d="M 35.1443 32.7859C 34.5563 32.114 33.535 32.046 32.8631 32.634C 32.1912 33.2219 32.1231 34.2433 32.7111 34.9152C 33.2991 35.5871 34.3205 35.6551 34.9924 35.0671C 35.6643 34.4791 35.7323 33.4578 35.1443 32.7859ZM 36.9692 31.1889C 35.4992 29.5091 32.9458 29.3391 31.2661 30.8091C 29.5863 32.2791 29.4163 34.8324 30.8863 36.5122C 32.3563 38.1919 34.9096 38.362 36.5894 36.892C 38.2691 35.422 38.4392 32.8686 36.9692 31.1889Z"/>
<path id="path2_fill" fill-rule="evenodd" d="M 18.9779 14.7661C 19.6504 16.1765 21.3389 16.7747 22.7493 16.1022C 24.1596 15.4297 24.7578 13.7412 24.0853 12.3308C 23.4128 10.9205 21.7243 10.3223 20.3139 10.9948L 19.2702 8.8059C 21.8895 7.55698 25.0253 8.66786 26.2742 11.2871C 27.5231 13.9064 26.4122 17.0421 23.793 18.2911C 21.1737 19.54 18.0379 18.4291 16.789 15.8098L 18.9779 14.7661Z"/>
<path id="path3_fill" d="M 22.0658 39.9346C 22.7377 39.3467 23.759 39.4147 24.347 40.0866C 24.935 40.7585 24.867 41.7798 24.1951 42.3678C 23.5232 42.9558 22.5018 42.8878 21.9138 42.2159C 21.3258 41.544 21.3939 40.5226 22.0658 39.9346Z"/>
<path id="path4_fill" d="M 28.9083 23.2052C 29.5802 22.6172 30.6015 22.6852 31.1895 23.3571C 31.7775 24.029 31.7095 25.0503 31.0376 25.6383C 30.3657 26.2263 29.3443 26.1583 28.7563 25.4864C 28.1683 24.8145 28.2364 23.7931 28.9083 23.2052Z"/>
<path id="path5_fill" d="M 10.5818 14.5378C 11.2537 13.9498 12.275 14.0178 12.863 14.6897C 13.451 15.3616 13.383 16.3829 12.7111 16.9709C 12.0392 17.5589 11.0178 17.4909 10.4298 16.819C 9.84185 16.1471 9.90986 15.1258 10.5818 14.5378Z"/>
<path id="path6_fill" d="M 42.9001 28.1468C 43.572 27.5588 44.5934 27.6269 45.1814 28.2988C 45.7694 28.9707 45.7014 29.992 45.0295 30.58C 44.3576 31.168 43.3362 31.1 42.7482 30.4281C 42.1602 29.7562 42.2282 28.7348 42.9001 28.1468Z"/>
<path id="path7_fill" fill-rule="evenodd" d="M 8.83225 6.40152C 19.5826 -3.0064 35.9242 -1.91813 45.3321 8.83225C 54.74 19.5826 53.6517 35.9242 42.9014 45.3321C 32.151 54.74 15.8094 53.6517 6.40152 42.9014C -3.0064 32.151 -1.91813 15.8094 8.83225 6.40152ZM 10.9616 8.83468C 1.55499 17.0666 0.602745 31.3654 8.83468 40.772C 17.0666 50.1786 31.3655 51.1309 40.772 42.8989C 50.1786 34.667 51.1309 20.3682 42.8989 10.9616C 40.9323 8.71435 38.6195 6.94964 36.1098 5.6774C 35.8995 5.82397 35.6934 5.98697 35.4846 6.17152C 32.629 8.6705 32.34 13.0112 34.8389 15.8668C 36.9462 18.2748 40.3658 18.8591 43.0984 17.4814L 44.1901 19.6467C 40.4936 21.5104 35.8677 20.7246 33.0141 17.4638C 29.7148 13.6938 30.0075 8.01043 33.6135 4.5962C 26.1109 1.87144 17.3928 3.20652 10.9616 8.83468ZM 11.647 24.347C 13.9987 22.289 17.5734 22.5271 19.6314 24.8787C 21.6894 27.2304 21.4513 30.8051 19.0997 32.863C 16.748 34.921 13.1733 34.683 11.1153 32.3313C 9.05734 29.9797 9.2954 26.405 11.647 24.347ZM 31.2661 30.8091C 32.9458 29.3391 35.4992 29.5091 36.9692 31.1889C 38.4392 32.8686 38.2691 35.422 36.5894 36.892C 34.9096 38.362 32.3563 38.1919 30.8863 36.5122C 29.4163 34.8324 29.5863 32.2791 31.2661 30.8091ZM 22.7493 16.1022C 21.3389 16.7747 19.6504 16.1765 18.9779 14.7661L 16.789 15.8098C 18.0379 18.4291 21.1737 19.54 23.793 18.2911C 26.4122 17.0421 27.5231 13.9064 26.2742 11.2871C 25.0253 8.66786 21.8895 7.55698 19.2702 8.8059L 20.3139 10.9948C 21.7243 10.3223 23.4128 10.9205 24.0853 12.3308C 24.7578 13.7412 24.1596 15.4297 22.7493 16.1022ZM 22.0658 39.9346C 22.7377 39.3467 23.759 39.4147 24.347 40.0866C 24.935 40.7585 24.867 41.7798 24.1951 42.3678C 23.5232 42.9558 22.5018 42.8878 21.9138 42.2159C 21.3258 41.544 21.3939 40.5226 22.0658 39.9346ZM 28.9083 23.2052C 29.5802 22.6172 30.6015 22.6852 31.1895 23.3571C 31.7775 24.029 31.7095 25.0503 31.0376 25.6383C 30.3657 26.2263 29.3443 26.1583 28.7563 25.4864C 28.1683 24.8145 28.2364 23.7931 28.9083 23.2052ZM 10.5818 14.5378C 11.2537 13.9498 12.275 14.0178 12.863 14.6897C 13.451 15.3616 13.383 16.3829 12.7111 16.9709C 12.0392 17.5589 11.0178 17.4909 10.4298 16.819C 9.84185 16.1471 9.90986 15.1258 10.5818 14.5378ZM 42.9001 28.1468C 43.572 27.5588 44.5934 27.6269 45.1814 28.2988C 45.7694 28.9707 45.7014 29.992 45.0295 30.58C 44.3576 31.168 43.3362 31.1 42.7482 30.4281C 42.1602 29.7562 42.2282 28.7348 42.9001 28.1468ZM 13.244 26.1719C 14.5878 24.9959 16.6305 25.1319 17.8065 26.4757C 18.9825 27.8195 18.8465 29.8622 17.5027 31.0382C 16.1589 32.2142 14.1162 32.0781 12.9402 30.7343C 11.7642 29.3905 11.9002 27.3478 13.244 26.1719ZM 35.1443 32.7859C 34.5563 32.114 33.535 32.046 32.8631 32.634C 32.1912 33.2219 32.1231 34.2433 32.7111 34.9152C 33.2991 35.5871 34.3205 35.6551 34.9924 35.0671C 35.6643 34.4791 35.7323 33.4578 35.1443 32.7859Z"/>
</defs>
</svg>
