<svg width="50" height="50" viewBox="0 0 50 50" version="1.1" xmlns="http://www.w3.org/2000/svg" xmlns:xlink="http://www.w3.org/1999/xlink">
<title>logo-v1.0.0</title>
<desc>Created using Figma</desc>
<g id="Canvas" transform="matrix(0.1 0 0 0.1 37 -26.2)">
<g id="logo-v1.0.0">
<g id="Vector">
<use xlink:href="#path0_fill" transform="translate(-370 262)" fill="#FFFFFF" fill-opacity="0.25"/>
<use xlink:href="#path1_fill" transform="translate(-370 262)" fill="#FFFFFF" fill-opacity="0.25"/>
<use xlink:href="#path2_fill" transform="translate(-370 262)" fill="#FFFFFF" fill-opacity="0.25"/>
<use xlink:href="#path3_fill" transform="translate(-370 262)" fill="#FFFFFF" fill-opacity="0.25"/>
<use xlink:href="#path4_fill" transform="translate(-370 262)" fill="#FFFFFF" fill-opacity="0.25"/>
<use xlink:href="#path5_fill" transform="translate(-370 262)" fill="#FFFFFF" fill-opacity="0.25"/>
<use xlink:href="#path6_fill" transform="translate(-370 262)" fill="#FFFFFF" fill-opacity="0.25"/>
<use xlink:href="#path7_fill" transform="translate(-370 262)" fill="#FFFFFF" fill-opacity="0.25"/>
</g>
<g id="LUNAR ICONS">
<use xlink:href="#path8_fill" transform="translate(-334 412)" fill="#FDFDFD"/>
<use xlink:href="#path9_fill" transform="translate(-334 412)" fill="#FDFDFD"/>
<use xlink:href="#path10_fill" transform="translate(-334 412)" fill="#FDFDFD"/>
<use xlink:href="#path11_fill" transform="translate(-334 412)" fill="#FDFDFD"/>
<use xlink:href="#path12_fill" transform="translate(-334 412)" fill="#FDFDFD"/>
<use xlink:href="#path13_fill" transform="translate(-334 412)" fill="#FDFDFD"/>
<use xlink:href="#path14_fill" transform="translate(-334 412)" fill="#FDFDFD"/>
<use xlink:href="#path15_fill" transform="translate(-334 412)" fill="#FDFDFD"/>
<use xlink:href="#path16_fill" transform="translate(-334 412)" fill="#FDFDFD"/>
<use xlink:href="#path17_fill" transform="translate(-334 412)" fill="#FDFDFD"/>
</g>
<g id="v1.0.0">
<use xlink:href="#path18_fill" transform="translate(-150.865 676.864)" fill="#FFFFFF"/>
<use xlink:href="#path19_fill" transform="translate(-150.865 676.864)" fill="#FFFFFF"/>
<use xlink:href="#path20_fill" transform="translate(-150.865 676.864)" fill="#FFFFFF"/>
<use xlink:href="#path21_fill" transform="translate(-150.865 676.864)" fill="#FFFFFF"/>
<use xlink:href="#path22_fill" transform="translate(-150.865 676.864)" fill="#FFFFFF"/>
<use xlink:href="#path23_fill" transform="translate(-150.865 676.864)" fill="#FFFFFF"/>
</g>
</g>
</g>
<defs>
<path id="path0_fill" fill-rule="evenodd" d="M 172.098 255.885C 160.732 242.897 140.99 241.582 128.002 252.948C 115.015 264.314 113.7 284.057 125.066 297.044C 136.431 310.032 156.174 311.347 169.161 299.981C 182.149 288.615 183.464 268.873 172.098 255.885ZM 189.735 240.45C 169.845 217.722 135.296 215.421 112.567 235.311C 89.839 255.201 87.5382 289.751 107.428 312.479C 127.319 335.207 161.868 337.508 184.596 317.618C 207.325 297.728 209.625 263.179 189.735 240.45Z"/>
<path id="path1_fill" fill-rule="evenodd" d="M 339.666 316.872C 333.983 310.378 324.112 309.721 317.618 315.404C 311.124 321.087 310.467 330.958 316.15 337.452C 321.833 343.946 331.704 344.603 338.198 338.92C 344.692 333.237 345.349 323.366 339.666 316.872ZM 357.303 301.437C 343.096 285.203 318.418 283.559 302.183 297.767C 285.949 311.974 284.305 336.652 298.513 352.886C 312.72 369.121 337.398 370.765 353.632 356.557C 369.867 342.35 371.511 317.672 357.303 301.437Z"/>
<path id="path2_fill" fill-rule="evenodd" d="M 183.419 142.713C 189.919 156.344 206.238 162.125 219.869 155.626C 233.5 149.126 239.281 132.807 232.782 119.176C 226.282 105.545 209.963 99.7638 196.332 106.263L 186.245 85.1081C 211.56 73.0375 241.867 83.774 253.937 109.089C 266.008 134.404 255.271 164.711 229.956 176.781C 204.642 188.852 174.335 178.115 162.264 152.8L 183.419 142.713Z"/>
<path id="path3_fill" d="M 213.263 385.964C 219.757 380.281 229.628 380.939 235.311 387.433C 240.994 393.926 240.337 403.798 233.843 409.48C 227.349 415.163 217.478 414.506 211.795 408.012C 206.112 401.518 206.769 391.647 213.263 385.964Z"/>
<path id="path4_fill" d="M 279.395 224.275C 285.889 218.593 295.76 219.25 301.443 225.744C 307.126 232.238 306.469 242.109 299.975 247.792C 293.481 253.475 283.61 252.817 277.927 246.323C 272.244 239.83 272.902 229.958 279.395 224.275Z"/>
<path id="path5_fill" d="M 102.272 140.506C 108.765 134.823 118.637 135.481 124.32 141.974C 130.002 148.468 129.345 158.339 122.851 164.022C 116.357 169.705 106.486 169.048 100.803 162.554C 95.1204 156.06 95.7778 146.189 102.272 140.506Z"/>
<path id="path6_fill" d="M 414.625 272.036C 421.119 266.353 430.991 267.011 436.673 273.505C 442.356 279.998 441.699 289.87 435.205 295.552C 428.711 301.235 418.84 300.578 413.157 294.084C 407.474 287.59 408.132 277.719 414.625 272.036Z"/>
<path id="path7_fill" fill-rule="evenodd" d="M 85.3628 61.87C 189.264 -29.0566 347.203 -18.5385 438.13 85.3628C 529.057 189.264 518.538 347.203 414.637 438.13C 310.736 529.057 152.797 518.538 61.87 414.637C -29.0566 310.736 -18.5385 152.797 85.3628 61.87ZM 105.942 85.3862C 15.0288 164.947 5.82548 303.144 85.3862 394.057C 164.947 484.971 303.144 494.174 394.057 414.614C 484.971 335.053 494.174 196.856 414.614 105.942C 395.607 84.2233 373.253 67.1676 348.997 54.8714C 346.965 56.2881 344.973 57.8634 342.955 59.6471C 315.356 83.7995 312.562 125.752 336.715 153.351C 357.081 176.624 390.131 182.272 416.542 168.956L 427.093 189.884C 391.367 207.896 346.657 200.301 319.078 168.786C 287.191 132.349 290.019 77.42 324.871 44.4218C 252.36 18.0873 168.1 30.9907 105.942 85.3862Z"/>
<path id="path8_fill" d="M 19.0102 83.2514L 59.6526 83.2514L 59.6526 93.9364L 6.29302 93.9364L 6.29302 0L 19.0102 0L 19.0102 83.2514Z"/>
<path id="path9_fill" d="M 110.15 83.8414C 114.04 83.8414 117.514 83.1858 120.573 81.8748C 123.632 80.5637 126.211 78.7283 128.308 76.3684C 130.45 74.0085 132.067 71.1898 133.159 67.9122C 134.295 64.6345 134.864 61.0292 134.864 57.096L 134.864 0L 147.515 0L 147.515 57.096C 147.515 62.515 146.641 67.5407 144.893 72.1731C 143.189 76.8054 140.72 80.826 137.486 84.2347C 134.295 87.5997 130.384 90.2436 125.752 92.1665C 121.119 94.0894 115.919 95.0508 110.15 95.0508C 104.382 95.0508 99.1813 94.0894 94.5489 92.1665C 89.9166 90.2436 85.9834 87.5997 82.7495 84.2347C 79.5156 80.826 77.0246 76.8054 75.2765 72.1731C 73.5722 67.5407 72.72 62.515 72.72 57.096L 72.72 0L 85.3716 0L 85.3716 57.0305C 85.3716 60.9636 85.9179 64.569 87.0104 67.8466C 88.1466 71.1242 89.7636 73.943 91.8613 76.3029C 94.0026 78.6627 96.6029 80.52 99.662 81.8748C 102.765 83.1858 106.261 83.8414 110.15 83.8414Z"/>
<path id="path10_fill" d="M 175.961 0C 177.097 0 177.927 0.152955 178.452 0.458866C 179.02 0.721075 179.654 1.28919 180.353 2.16323L 234.761 72.9597C 234.63 71.8234 234.543 70.7309 234.499 69.6821C 234.455 68.5895 234.433 67.5407 234.433 66.5356L 234.433 0L 245.577 0L 245.577 93.9364L 239.153 93.9364C 238.148 93.9364 237.296 93.7616 236.597 93.412C 235.941 93.0624 235.286 92.4724 234.63 91.6421L 180.287 20.9112C 180.375 22.0037 180.44 23.0744 180.484 24.1232C 180.528 25.1721 180.549 26.1335 180.549 27.0075L 180.549 93.9364L 169.406 93.9364L 169.406 0L 175.961 0Z"/>
<path id="path11_fill" d="M 345.788 93.9364L 335.955 93.9364C 334.819 93.9364 333.901 93.6524 333.202 93.0842C 332.503 92.5161 331.979 91.795 331.629 90.921L 322.845 68.2399L 280.695 68.2399L 271.911 90.921C 271.605 91.7076 271.081 92.4069 270.338 93.0187C 269.595 93.6305 268.677 93.9364 267.584 93.9364L 257.752 93.9364L 295.313 0L 308.227 0L 345.788 93.9364ZM 284.235 59.0626L 319.305 59.0626L 304.556 20.8456C 303.594 18.4857 302.655 15.5359 301.737 11.9961C 301.256 13.7878 300.776 15.4485 300.295 16.978C 299.858 18.4639 299.421 19.7749 298.984 20.9112L 284.235 59.0626Z"/>
<path id="path12_fill" d="M 371.575 54.7362L 371.575 93.9364L 358.923 93.9364L 358.923 0L 385.472 0C 391.415 0 396.55 0.611821 400.877 1.83546C 405.203 3.0154 408.765 4.74162 411.562 7.01409C 414.402 9.28657 416.5 12.0398 417.855 15.2737C 419.21 18.4639 419.887 22.0474 419.887 26.0243C 419.887 29.3456 419.363 32.4484 418.314 35.3327C 417.265 38.217 415.735 40.8172 413.725 43.1334C 411.758 45.4059 409.333 47.3506 406.449 48.9675C 403.608 50.5845 400.374 51.8081 396.747 52.6385C 398.32 53.5562 399.719 54.8891 400.942 56.6372L 428.343 93.9364L 417.068 93.9364C 414.752 93.9364 413.048 93.0405 411.955 91.2488L 387.57 57.686C 386.827 56.6372 386.018 55.8942 385.144 55.4572C 384.27 54.9765 382.959 54.7362 381.211 54.7362L 371.575 54.7362ZM 371.575 45.4933L 384.882 45.4933C 388.597 45.4933 391.852 45.0563 394.649 44.1822C 397.49 43.2645 399.85 41.9972 401.729 40.3802C 403.652 38.7195 405.094 36.753 406.055 34.4805C 407.017 32.208 407.498 29.6952 407.498 26.942C 407.498 21.3482 405.64 17.131 401.926 14.2904C 398.255 11.4498 392.77 10.0295 385.472 10.0295L 371.575 10.0295L 371.575 45.4933Z"/>
<path id="path13_fill" d="M 0 143.835L 8.10226 143.835L 8.10226 198.82L 0 198.82L 0 143.835Z"/>
<path id="path14_fill" d="M 93.0894 200C 87.4256 200 82.3912 198.82 77.9861 196.46C 73.581 194.1 70.1461 190.77 67.6813 186.47C 65.2165 182.117 63.9842 177.083 63.9842 171.367C 63.9842 165.651 65.2165 160.616 67.6813 156.264C 70.1461 151.911 73.581 148.555 77.9861 146.195C 82.3912 143.835 87.4256 142.655 93.0894 142.655C 100.641 142.655 106.96 144.569 112.047 148.397L 112.047 156.106C 107.485 152.068 101.401 150.049 93.7973 150.049C 89.5495 150.049 85.7737 150.914 82.4699 152.645C 79.2185 154.376 76.6751 156.867 74.8396 160.118C 73.0041 163.317 72.0864 167.067 72.0864 171.367C 72.0864 175.667 73.0041 179.443 74.8396 182.694C 76.7275 185.946 79.2972 188.437 82.5486 190.167C 85.8524 191.898 89.602 192.763 93.7973 192.763C 97.678 192.763 101.139 192.265 104.181 191.268C 107.275 190.22 110.133 188.568 112.755 186.313L 112.755 194.1C 108.035 198.033 101.48 200 93.0894 200Z"/>
<path id="path15_fill" d="M 193.98 200C 188.526 200 183.596 198.82 179.191 196.46C 174.786 194.048 171.325 190.665 168.808 186.313C 166.291 181.96 165.032 176.978 165.032 171.367C 165.032 165.755 166.291 160.774 168.808 156.421C 171.325 152.068 174.786 148.686 179.191 146.273C 183.596 143.861 188.526 142.655 193.98 142.655C 199.434 142.655 204.363 143.861 208.768 146.273C 213.174 148.686 216.635 152.068 219.152 156.421C 221.669 160.774 222.928 165.755 222.928 171.367C 222.928 176.978 221.669 181.96 219.152 186.313C 216.635 190.665 213.174 194.048 208.768 196.46C 204.363 198.82 199.434 200 193.98 200ZM 193.98 192.763C 197.861 192.763 201.374 191.898 204.521 190.167C 207.72 188.384 210.237 185.893 212.072 182.694C 213.908 179.443 214.825 175.667 214.825 171.367C 214.825 167.119 213.908 163.396 212.072 160.197C 210.289 156.945 207.824 154.454 204.678 152.724C 201.531 150.941 198.018 150.049 194.137 150.049C 190.204 150.049 186.638 150.914 183.439 152.645C 180.293 154.376 177.775 156.867 175.887 160.118C 174.052 163.369 173.134 167.119 173.134 171.367C 173.134 175.667 174.052 179.443 175.887 182.694C 177.723 185.893 180.214 188.384 183.36 190.167C 186.559 191.898 190.099 192.763 193.98 192.763Z"/>
<path id="path16_fill" d="M 278.792 143.835L 286.422 143.835L 314.426 185.29L 314.426 143.835L 322.528 143.835L 322.528 198.82L 314.819 198.82L 286.815 157.365L 286.815 198.82L 278.792 198.82L 278.792 143.835Z"/>
<path id="path17_fill" d="M 395.177 200C 392.03 200 388.91 199.712 385.816 199.135C 382.775 198.61 380.284 197.876 378.343 196.932L 378.343 189.695C 383.378 192.055 388.805 193.235 394.626 193.235C 402.807 193.235 406.898 190.482 406.898 184.975C 406.898 183.088 406.452 181.567 405.56 180.413C 404.669 179.259 403.384 178.263 401.706 177.424C 400.028 176.532 397.301 175.326 393.525 173.805C 388.333 171.708 384.584 169.4 382.276 166.883C 379.969 164.366 378.815 161.193 378.815 157.365C 378.815 154.481 379.602 151.937 381.175 149.735C 382.748 147.48 384.951 145.749 387.783 144.543C 390.615 143.284 393.866 142.655 397.537 142.655C 400.526 142.655 403.227 142.891 405.639 143.363C 408.051 143.835 410.411 144.595 412.719 145.644L 412.719 152.566C 408.156 150.521 403.541 149.499 398.874 149.499C 395.098 149.499 392.214 150.18 390.221 151.544C 388.228 152.907 387.232 154.848 387.232 157.365C 387.232 159.095 387.652 160.564 388.491 161.77C 389.382 162.924 390.667 163.972 392.345 164.916C 394.076 165.808 396.619 166.935 399.975 168.299C 403.699 169.82 406.636 171.262 408.786 172.625C 410.936 173.989 412.561 175.667 413.663 177.66C 414.816 179.6 415.393 182.039 415.393 184.975C 415.393 189.748 413.689 193.445 410.28 196.067C 406.872 198.689 401.837 200 395.177 200Z"/>
<path id="path18_fill" d="M 0 5.616L 2.568 5.616L 5.952 13.896L 9.336 5.616L 11.904 5.616L 7.008 17.136L 4.896 17.136L 0 5.616Z"/>
<path id="path19_fill" d="M 17.6865 3L 14.0625 5.616L 14.0625 3.288L 18.0225 0.36L 20.1345 0.36L 20.1345 17.136L 17.6865 17.136L 17.6865 3Z"/>
<path id="path20_fill" d="M 23.9093 17.136C 23.5893 17.136 23.3173 17.032 23.0933 16.824C 22.8853 16.6 22.7812 16.328 22.7812 16.008C 22.7812 15.688 22.8853 15.416 23.0933 15.192C 23.3173 14.968 23.5893 14.856 23.9093 14.856C 24.2293 14.856 24.5013 14.968 24.7253 15.192C 24.9493 15.416 25.0613 15.688 25.0613 16.008C 25.0613 16.328 24.9493 16.6 24.7253 16.824C 24.5013 17.032 24.2293 17.136 23.9093 17.136Z"/>
<path id="path21_fill" d="M 34.1949 17.496C 32.7549 17.496 31.5069 17.144 30.4509 16.44C 29.4109 15.736 28.6109 14.728 28.0509 13.416C 27.4909 12.104 27.2109 10.552 27.2109 8.76C 27.2109 6.968 27.4829 5.416 28.0269 4.104C 28.5869 2.776 29.3869 1.76 30.4269 1.056C 31.4829 0.352 32.7389 0 34.1949 0C 35.6509 0 36.8989 0.352 37.9389 1.056C 38.9949 1.76 39.7949 2.776 40.3389 4.104C 40.8989 5.416 41.1789 6.968 41.1789 8.76C 41.1789 10.552 40.8989 12.104 40.3389 13.416C 39.7789 14.728 38.9709 15.736 37.9149 16.44C 36.8749 17.144 35.6349 17.496 34.1949 17.496ZM 34.1949 15.336C 35.6189 15.336 36.7309 14.752 37.5309 13.584C 38.3469 12.4 38.7549 10.8 38.7549 8.784C 38.7549 6.768 38.3549 5.168 37.5549 3.984C 36.7549 2.8 35.6349 2.208 34.1949 2.208C 32.7549 2.208 31.6349 2.8 30.8349 3.984C 30.0349 5.168 29.6349 6.768 29.6349 8.784C 29.6349 10.8 30.0349 12.4 30.8349 13.584C 31.6509 14.752 32.7709 15.336 34.1949 15.336Z"/>
<path id="path22_fill" d="M 44.4639 17.136C 44.1439 17.136 43.8719 17.032 43.6479 16.824C 43.4399 16.6 43.3359 16.328 43.3359 16.008C 43.3359 15.688 43.4399 15.416 43.6479 15.192C 43.8719 14.968 44.1439 14.856 44.4639 14.856C 44.7839 14.856 45.0559 14.968 45.2799 15.192C 45.5039 15.416 45.6159 15.688 45.6159 16.008C 45.6159 16.328 45.5039 16.6 45.2799 16.824C 45.0559 17.032 44.7839 17.136 44.4639 17.136Z"/>
<path id="path23_fill" d="M 54.7496 17.496C 53.3096 17.496 52.0616 17.144 51.0056 16.44C 49.9656 15.736 49.1656 14.728 48.6056 13.416C 48.0456 12.104 47.7656 10.552 47.7656 8.76C 47.7656 6.968 48.0376 5.416 48.5816 4.104C 49.1416 2.776 49.9416 1.76 50.9816 1.056C 52.0376 0.352 53.2936 0 54.7496 0C 56.2056 0 57.4536 0.352 58.4936 1.056C 59.5496 1.76 60.3496 2.776 60.8936 4.104C 61.4536 5.416 61.7336 6.968 61.7336 8.76C 61.7336 10.552 61.4536 12.104 60.8936 13.416C 60.3336 14.728 59.5256 15.736 58.4696 16.44C 57.4296 17.144 56.1896 17.496 54.7496 17.496ZM 54.7496 15.336C 56.1736 15.336 57.2856 14.752 58.0856 13.584C 58.9016 12.4 59.3096 10.8 59.3096 8.784C 59.3096 6.768 58.9096 5.168 58.1096 3.984C 57.3096 2.8 56.1896 2.208 54.7496 2.208C 53.3096 2.208 52.1896 2.8 51.3896 3.984C 50.5896 5.168 50.1896 6.768 50.1896 8.784C 50.1896 10.8 50.5896 12.4 51.3896 13.584C 52.2056 14.752 53.3256 15.336 54.7496 15.336Z"/>
</defs>
</svg>
