<svg width="1500" height="142" viewBox="0 0 1500 142" version="1.1" xmlns="http://www.w3.org/2000/svg" xmlns:xlink="http://www.w3.org/1999/xlink">
<title>moon-scene</title>
<desc>Created using Figma</desc>
<g id="Canvas" transform="translate(0 -700)">
<g id="moon-scene">
<g id="Ellipse">
<use xlink:href="#path0_fill" transform="translate(0 758.657)" fill="#FFFFFF"/>
</g>
<g id="Group">
<g id="Group">
<g id="Vector 5">
<use xlink:href="#path1_fill" transform="translate(739.583 701.271)" fill="#C6B298"/>
</g>
<g id="Vector 5 (Stroke)">
<use xlink:href="#path2_fill" transform="translate(738.427 700)" fill="#7B6952"/>
</g>
<g id="Vector 4">
<use xlink:href="#path3_fill" transform="translate(727.083 734.608)" fill="#FFD659"/>
</g>
<g id="Vector 4 (Stroke)">
<use xlink:href="#path4_fill" transform="translate(727.083 732.524)" fill="#FFCB2C"/>
</g>
</g>
</g>
<g id="Group">
<g id="Vector 6 (Stroke)">
<use xlink:href="#path5_fill" transform="matrix(0.998723 0.0505245 -0.0505133 0.998723 940.694 722.422)" fill="#422714"/>
</g>
<g id="Rectangle 9">
<use xlink:href="#path6_fill" transform="matrix(0.998723 0.0505245 -0.0505133 0.998723 942.653 722.521)" fill="#FFFFFF"/>
</g>
<g id="Vector 6 (Stroke)">
<use xlink:href="#path7_fill" transform="matrix(0.998723 0.0505245 -0.0505133 0.998723 942.553 724.479)" fill="#E8575C"/>
</g>
<g id="Rectangle 10">
<use xlink:href="#path8_fill" transform="matrix(0.998723 0.0505245 -0.0505133 0.998723 942.653 722.521)" fill="#276DCC"/>
</g>
</g>
<g id="Group">
<g id="Vector 6 (Stroke)">
<use xlink:href="#path9_fill" transform="matrix(-0.997951 0.0639816 0.0639675 0.997952 652.534 733.895)" fill="#F6F6F6"/>
</g>
<g id="Vector 6 (Stroke) (Stroke)">
<use xlink:href="#path10_fill" transform="matrix(-0.997951 0.0639816 0.0639675 0.997952 652.534 733.895)" fill="#F0F0F0"/>
</g>
<g id="Vector 7 (Stroke)">
<use xlink:href="#path11_fill" transform="matrix(-0.997951 0.0639816 0.0639675 0.997952 654.388 739.318)" fill="#FFFFFF"/>
</g>
<g id="Vector 7 (Stroke) (Stroke)">
<use xlink:href="#path12_fill" transform="matrix(-0.997951 0.0639816 0.0639675 0.997952 654.898 738.738)" fill="#FAFAFA"/>
</g>
<g id="Vector 8 (Stroke)">
<use xlink:href="#path13_fill" transform="matrix(-0.997951 0.0639816 0.0639675 0.997952 646.129 734.871)" fill="#FAFAFA"/>
<mask id="mask0_outline_ins">
<use xlink:href="#path13_fill" fill="white" transform="matrix(-0.997951 0.0639816 0.0639675 0.997952 646.129 734.871)"/>
</mask>
<g mask="url(#mask0_outline_ins)">
<use xlink:href="#path14_stroke_2x" transform="matrix(-0.997951 0.0639816 0.0639675 0.997952 646.129 734.871)" fill="#F5F5F5"/>
</g>
</g>
<g id="Ellipse 2">
<use xlink:href="#path15_fill" transform="matrix(-0.997951 0.0639816 0.0639675 0.997952 656.208 726.893)" fill="#FFD659"/>
</g>
<g id="Ellipse 2 (Stroke)">
<use xlink:href="#path16_fill" transform="matrix(-0.997951 0.0639816 0.0639675 0.997952 656.208 726.893)" fill="#FFCB2C"/>
</g>
<g id="Subtract">
<use xlink:href="#path17_fill" transform="matrix(-0.997951 0.0639816 0.0639675 0.997952 655.718 726.925)" fill="#F0F0F0"/>
</g>
<g id="Subtract (Stroke)">
<use xlink:href="#path18_fill" transform="matrix(-0.997951 0.0639816 0.0639675 0.997952 655.718 726.925)" fill="#EBEBEB"/>
</g>
</g>
</g>
</g>
<defs>
<path id="path0_fill" d="M 750 0C 491.025 0 239.715 28.9363 0 83.3426L 1500 83.3426C 1260.28 28.9363 1008.97 0 750 0Z"/>
<path id="path1_fill" d="M 2.31482 11.1123L 0 33.337L 41.6667 33.337L 39.3519 22.2247L 39.3519 5.55617L 11.5741 0L 11.5741 8.33425L 2.31482 11.1123Z"/>
<path id="path2_fill" fill-rule="evenodd" d="M 11.6882 0L 12.9342 0.249218L 40.7119 5.80539L 41.5493 5.97288L 41.5493 6.82694L 41.5493 23.3881L 43.8422 34.3953L 44.1035 35.6496L 42.8225 35.6496L 1.15581 35.6496L 0 35.6496L 0.119749 34.4999L 2.43456 12.2752L 2.50648 11.5847L 3.1713 11.3853L 11.6882 8.82991L 11.6882 1.27077L 11.6882 0ZM 13.7716 2.54154L 13.7716 9.60502L 13.7716 10.3801L 13.0292 10.6029L 4.43477 13.1815L 2.31162 33.566L 41.5414 33.566L 39.4879 23.7079L 39.466 23.6028L 39.466 23.4954L 39.466 7.681L 13.7716 2.54154Z"/>
<path id="path3_fill" d="M 16.6667 8.33426L 12.5 0L 54.1667 0L 50 8.33426L 16.6667 8.33426Z"/>
<path id="path4_fill" fill-rule="evenodd" d="M 10.7613 0L 12.5 0L 54.1667 0L 55.9054 0L 56.2164 1.71084L 60.072 22.9192L 66.6667 22.9192L 66.6667 27.0863L 58.3333 27.0863L 54.1667 27.0863L 54.1667 22.9192L 55.8371 22.9192L 53.235 8.60615L 51.8634 11.3496L 51.2876 12.5014L 50 12.5014L 16.6667 12.5014L 15.3791 12.5014L 14.8033 11.3496L 13.4317 8.60615L 10.8296 22.9192L 12.5 22.9192L 12.5 27.0863L 8.33333 27.0863L 0 27.0863L 0 22.9192L 6.59463 22.9192L 10.4503 1.71084L 10.7613 0ZM 15.8709 4.16713L 50.7958 4.16713L 48.7124 8.33426L 17.9542 8.33426L 15.8709 4.16713Z"/>
<path id="path5_fill" fill-rule="evenodd" d="M 1.96079 0L 1.96079 43.142L 0 43.142L 0 0L 1.96079 0Z"/>
<path id="path6_fill" d="M 0 0L 31.3726 0L 31.3726 19.61L 0 19.61L 0 0Z"/>
<path id="path7_fill" fill-rule="evenodd" d="M 31.3726 1.961L 13.7255 1.961L 13.7255 0L 31.3726 0L 31.3726 1.961ZM 31.3726 5.883L 13.7255 5.883L 13.7255 3.922L 31.3726 3.922L 31.3726 5.883ZM 31.3726 9.805L 0 9.805L 0 7.844L 31.3726 7.844L 31.3726 9.805ZM 31.3726 13.727L 0 13.727L 0 11.766L 31.3726 11.766L 31.3726 13.727ZM 31.3726 17.649L 0 17.649L 0 15.688L 31.3726 15.688L 31.3726 17.649Z"/>
<path id="path8_fill" d="M 0 0L 15.6863 0L 15.6863 9.805L 0 9.805L 0 0Z"/>
<path id="path9_fill" fill-rule="evenodd" d="M 6.40511 0L 8.84414 13.8227L 8.89362 14.1031L 8.89362 14.3879L 8.89362 26.5844L 2.38954 26.5844L 2.38954 14.6727L 0 1.13044L 6.40511 0Z"/>
<path id="path10_fill" fill-rule="evenodd" d="M 2.38954 14.6727L 2.38954 25.7713L 2.38954 26.5844L 3.20255 26.5844L 8.08061 26.5844L 8.89362 26.5844L 8.89362 25.7713L 8.89362 14.3879L 8.89362 14.1031L 8.84414 13.8227L 6.5464 0.800726L 6.40511 0L 5.60447 0.141305L 0.800638 0.989132L 0 1.13044L 0.141289 1.93116L 2.38954 14.6727ZM 0.941927 1.78986L 3.19018 14.5314L 3.20255 14.6015L 3.20255 14.6727L 3.20255 25.7713L 8.08061 25.7713L 8.08061 14.3879L 8.08061 14.1743L 8.0435 13.964L 5.74576 0.942031L 0.941927 1.78986Z"/>
<path id="path11_fill" fill-rule="evenodd" d="M 0 8.13099L 4.06505 0L 6.97376 1.45452L 2.90871 9.5855L 0 8.13099Z"/>
<path id="path12_fill" fill-rule="evenodd" d="M 4.42864 0L 4.79223 0.181814L 7.70094 1.63633L 8.06453 1.81814L 7.88273 2.18177L 3.81768 10.3128L 3.63589 10.6764L 3.2723 10.4946L 0.363589 9.04006L 0 8.85824L 0.181794 8.49462L 4.24684 0.363629L 4.42864 0ZM 4.79223 1.09089L 1.09077 8.49462L 3.2723 9.5855L 6.97376 2.18177L 4.79223 1.09089Z"/>
<path id="path13_fill" fill-rule="evenodd" d="M 2.00314 0.039769C 3.32845 -0.201223 4.59817 0.677909 4.83914 2.00336L 6.46516 10.9474L 1.66578 11.8202L 0.0397646 2.87607C -0.201201 1.55062 0.677834 0.280761 2.00314 0.039769Z"/>
<path id="path14_stroke_2x" d="M 4.83914 2.00336L 4.3472 2.0928L 4.3472 2.0928L 4.83914 2.00336ZM 2.00314 0.039769L 2.0926 0.531702L 2.0926 0.531702L 2.00314 0.039769ZM 6.46516 10.9474L 6.55461 11.4394L 7.04652 11.3499L 6.95709 10.858L 6.46516 10.9474ZM 1.66578 11.8202L 1.17385 11.9096L 1.26328 12.4015L 1.75524 12.3121L 1.66578 11.8202ZM 0.0397646 2.87607L 0.531701 2.78664L 0.531701 2.78664L 0.0397646 2.87607ZM 5.33107 1.91393C 5.04072 0.316826 3.51074 -0.742569 1.91369 -0.452164L 2.0926 0.531702C 3.14616 0.340123 4.15562 1.03899 4.3472 2.0928L 5.33107 1.91393ZM 6.95709 10.858L 5.33107 1.91393L 4.3472 2.0928L 5.97322 11.0369L 6.95709 10.858ZM 1.75524 12.3121L 6.55461 11.4394L 6.3757 10.4555L 1.57633 11.3282L 1.75524 12.3121ZM -0.452172 2.96551L 1.17385 11.9096L 2.15772 11.7307L 0.531701 2.78664L -0.452172 2.96551ZM 1.91369 -0.452164C 0.316655 -0.161762 -0.74252 1.36842 -0.452172 2.96551L 0.531701 2.78664C 0.340118 1.73282 1.03901 0.723284 2.0926 0.531702L 1.91369 -0.452164Z"/>
<path id="path15_fill" d="M 11.3821 5.69169C 11.3821 8.83512 8.83416 11.3834 5.69107 11.3834C 2.54798 11.3834 0 8.83512 0 5.69169C 0 2.54826 2.54798 0 5.69107 0C 8.83416 0 11.3821 2.54826 11.3821 5.69169Z"/>
<path id="path16_fill" fill-rule="evenodd" d="M 5.69107 10.5703C 8.38514 10.5703 10.5691 8.38606 10.5691 5.69169C 10.5691 2.99732 8.38514 0.813099 5.69107 0.813099C 2.99699 0.813099 0.81301 2.99732 0.81301 5.69169C 0.81301 8.38606 2.99699 10.5703 5.69107 10.5703ZM 5.69107 11.3834C 8.83416 11.3834 11.3821 8.83512 11.3821 5.69169C 11.3821 2.54826 8.83416 0 5.69107 0C 2.54798 0 0 2.54826 0 5.69169C 0 8.83512 2.54798 11.3834 5.69107 11.3834Z"/>
<path id="path17_fill" fill-rule="evenodd" d="M 5.19994 11.3834C 8.34302 11.3834 10.891 8.8351 10.891 5.69169C 10.891 2.54828 8.34302 0 5.19994 0C 2.88168 0 0.887176 1.3863 0 3.37517L 2.76091 4.06549L 4.3737 11.3238C 4.64344 11.363 4.91932 11.3834 5.19994 11.3834Z"/>
<path id="path18_fill" fill-rule="evenodd" d="M 3.44556 3.39855L 3.55456 3.88911L 5.03864 10.5682C 5.0912 10.5697 5.14476 10.5704 5.19994 10.5703C 7.89401 10.5703 10.078 8.38604 10.078 5.69169C 10.078 2.99734 7.89401 0.813099 5.19994 0.813099C 3.56849 0.813099 2.12291 1.61415 1.23685 2.8463L 2.9581 3.27667L 3.44556 3.39855ZM 0.803014 3.57595L 2.76091 4.06549L 4.3737 11.3238C 4.64344 11.363 4.91932 11.3834 5.19994 11.3834C 8.34302 11.3834 10.891 8.8351 10.891 5.69169C 10.891 2.54828 8.34302 0 5.19994 0C 3.18108 0 1.40776 1.05134 0.397457 2.63643C 0.247627 2.8715 0.114578 3.11831 0 3.37517L 0.803014 3.57595Z"/>
</defs>
</svg>
