<svg
    width="1024"
    height="1024"
    viewBox="0 0 24 24"
    version="1.1"
    xmlns="http://www.w3.org/2000/svg"
    preserveAspectRatio="none">
    <g fill="#0A0B1A">
        <path d="M 24 13.2C 24 13.2 20.4 10.8 18.2 11.1C 13.8 11.8 10.8 23.2 7.4 23.4C 4 23.6 0 20.9 0 20.9L 0 24L 24 24L 24 13.2Z"/>
        <path d="M 24 9C 24 9 19.6 5.3 16.7 6.4C 12.8 8 11.9 20.5 7.4 20.6C 4.5 20.7 0 14.6 0 14.6L 0 24L 24 24L 24 9Z" fill="#0A0B1A" opacity=".4"/>
        <path d="M 24 2.2C 24 2.2 19.3 1.9 16.4 3.8C 12.1 6.5 10 14.9 5.6 14.6C 3.4 14.5 0 11.3 0 11.3L 0 24L 24 24L 24 2.2Z" fill="#0A0B1A" opacity=".2" />
    </g>
</svg>
