<svg width="50" height="50" viewBox="0 0 50 50" version="1.1" xmlns="http://www.w3.org/2000/svg" xmlns:xlink="http://www.w3.org/1999/xlink">
<title>logo-v1.0.0</title>
<desc>Created using Figma</desc>
<g id="Canvas" transform="matrix(0.5 0 0 0.5 -600 -71)">
<g id="logo-v1.0.0">
<g id="Vector">
<use xlink:href="#path0_fill" transform="translate(1200 142)" fill="#0A0B19" fill-opacity="0.25"/>
<use xlink:href="#path1_fill" transform="translate(1200 142)" fill="#0A0B19" fill-opacity="0.25"/>
<use xlink:href="#path2_fill" transform="translate(1200 142)" fill="#0A0B19" fill-opacity="0.25"/>
<use xlink:href="#path3_fill" transform="translate(1200 142)" fill="#0A0B19" fill-opacity="0.25"/>
<use xlink:href="#path4_fill" transform="translate(1200 142)" fill="#0A0B19" fill-opacity="0.25"/>
<use xlink:href="#path5_fill" transform="translate(1200 142)" fill="#0A0B19" fill-opacity="0.25"/>
<use xlink:href="#path6_fill" transform="translate(1200 142)" fill="#0A0B19" fill-opacity="0.25"/>
<use xlink:href="#path7_fill" transform="translate(1200 142)" fill="#0A0B19" fill-opacity="0.25"/>
</g>
<g id="LUNAR ICONS">
<use xlink:href="#path8_fill" transform="translate(1207.2 172)" fill="#0C0D1F"/>
<use xlink:href="#path9_fill" transform="translate(1207.2 172)" fill="#0C0D1F"/>
<use xlink:href="#path10_fill" transform="translate(1207.2 172)" fill="#0C0D1F"/>
<use xlink:href="#path11_fill" transform="translate(1207.2 172)" fill="#0C0D1F"/>
<use xlink:href="#path12_fill" transform="translate(1207.2 172)" fill="#0C0D1F"/>
<use xlink:href="#path13_fill" transform="translate(1207.2 172)" fill="#0C0D1F"/>
<use xlink:href="#path14_fill" transform="translate(1207.2 172)" fill="#0C0D1F"/>
<use xlink:href="#path15_fill" transform="translate(1207.2 172)" fill="#0C0D1F"/>
<use xlink:href="#path16_fill" transform="translate(1207.2 172)" fill="#0C0D1F"/>
<use xlink:href="#path17_fill" transform="translate(1207.2 172)" fill="#0C0D1F"/>
</g>
</g>
</g>
<defs>
<path id="path0_fill" fill-rule="evenodd" d="M 34.4196 51.177C 32.1465 48.5795 28.198 48.3165 25.6004 50.5897C 23.0029 52.8628 22.74 56.8113 25.0131 59.4088C 27.2863 62.0064 31.2348 62.2693 33.8323 59.9962C 36.4298 57.723 36.6928 53.7745 34.4196 51.177ZM 37.9471 48.09C 33.969 43.5444 27.0592 43.0842 22.5135 47.0622C 17.9678 51.0403 17.5076 57.9501 21.4857 62.4958C 25.4637 67.0415 32.3736 67.5016 36.9192 63.5236C 41.4649 59.5456 41.9251 52.6357 37.9471 48.09Z"/>
<path id="path1_fill" fill-rule="evenodd" d="M 67.9332 63.3744C 66.7966 62.0757 64.8224 61.9442 63.5236 63.0808C 62.2249 64.2173 62.0934 66.1916 63.23 67.4904C 64.3665 68.7891 66.3408 68.9206 67.6396 67.784C 68.9383 66.6474 69.0698 64.6732 67.9332 63.3744ZM 71.4607 60.2875C 68.6192 57.0406 63.6836 56.7119 60.4367 59.5533C 57.1898 62.3948 56.8611 67.3304 59.7025 70.5773C 62.544 73.8242 67.4796 74.1529 70.7265 71.3115C 73.9734 68.47 74.3021 63.5344 71.4607 60.2875Z"/>
<path id="path2_fill" fill-rule="evenodd" d="M 36.6839 28.5426C 37.9838 31.2688 41.2476 32.4251 43.9738 31.1252C 46.7 29.8253 47.8563 26.5614 46.5564 23.8352C 45.2565 21.109 41.9926 19.9528 39.2664 21.2527L 37.249 17.0216C 42.3119 14.6075 48.3733 16.7548 50.7874 21.8178C 53.2016 26.8807 51.0543 32.9421 45.9913 35.3562C 40.9283 37.7704 34.867 35.6231 32.4528 30.5601L 36.6839 28.5426Z"/>
<path id="path3_fill" d="M 42.6527 77.1929C 43.9514 76.0563 45.9257 76.1878 47.0622 77.4865C 48.1988 78.7853 48.0674 80.7595 46.7686 81.8961C 45.4698 83.0327 43.4956 82.9012 42.359 81.6024C 41.2224 80.3037 41.3539 78.3294 42.6527 77.1929Z"/>
<path id="path4_fill" d="M 55.8791 44.8551C 57.1778 43.7185 59.1521 43.85 60.2887 45.1487C 61.4252 46.4475 61.2938 48.4218 59.995 49.5583C 58.6962 50.6949 56.722 50.5634 55.5854 49.2647C 54.4488 47.9659 54.5803 45.9917 55.8791 44.8551Z"/>
<path id="path5_fill" d="M 20.4543 28.1012C 21.7531 26.9646 23.7273 27.0961 24.8639 28.3949C 26.0005 29.6936 25.869 31.6679 24.5703 32.8045C 23.2715 33.9411 21.2973 33.8096 20.1607 32.5108C 19.0241 31.212 19.1556 29.2378 20.4543 28.1012Z"/>
<path id="path6_fill" d="M 82.9251 54.4072C 84.2239 53.2707 86.1981 53.4021 87.3347 54.7009C 88.4713 55.9997 88.3398 57.9739 87.041 59.1105C 85.7423 60.2471 83.768 60.1156 82.6314 58.8168C 81.4949 57.5181 81.6263 55.5438 82.9251 54.4072Z"/>
<path id="path7_fill" fill-rule="evenodd" d="M 17.0726 12.374C 37.8528 -5.81132 69.4407 -3.7077 87.626 17.0726C 105.811 37.8528 103.708 69.4407 82.9274 87.626C 62.1472 105.811 30.5593 103.708 12.374 82.9274C -5.81132 62.1472 -3.7077 30.5593 17.0726 12.374ZM 21.1885 17.0773C 3.00577 32.9894 1.1651 60.6288 17.0773 78.8115C 32.9894 96.9942 60.6288 98.8349 78.8115 82.9227C 96.9942 67.0106 98.8349 39.3712 82.9227 21.1885C 79.1214 16.8447 74.6507 13.4335 69.7995 10.9743C 69.393 11.2576 68.9945 11.5727 68.591 11.9294C 63.0712 16.7599 62.5125 25.1504 67.343 30.6702C 71.4163 35.3248 78.0263 36.4543 83.3083 33.7912L 85.4186 37.9768C 78.2734 41.5792 69.3315 40.0602 63.8155 33.7571C 57.4382 26.4698 58.0039 15.484 64.9742 8.88436C 50.4719 3.61747 33.62 6.19814 21.1885 17.0773Z"/>
<path id="path8_fill" d="M 3.80203 16.6503L 11.9305 16.6503L 11.9305 18.7873L 1.2586 18.7873L 1.2586 0L 3.80203 0L 3.80203 16.6503Z"/>
<path id="path9_fill" d="M 22.0301 16.7683C 22.808 16.7683 23.5028 16.6372 24.1146 16.375C 24.7265 16.1128 25.2421 15.7457 25.6617 15.2737C 26.0899 14.8017 26.4133 14.238 26.6318 13.5824C 26.8591 12.9269 26.9727 12.2058 26.9727 11.4192L 26.9727 0L 29.503 0L 29.503 11.4192C 29.503 12.503 29.3282 13.5081 28.9786 14.4346C 28.6377 15.3611 28.1439 16.1652 27.4971 16.8469C 26.8591 17.5199 26.0768 18.0487 25.1504 18.4333C 24.2239 18.8179 23.1838 19.0102 22.0301 19.0102C 20.8764 19.0102 19.8363 18.8179 18.9098 18.4333C 17.9833 18.0487 17.1967 17.5199 16.5499 16.8469C 15.9031 16.1652 15.4049 15.3611 15.0553 14.4346C 14.7144 13.5081 14.544 12.503 14.544 11.4192L 14.544 0L 17.0743 0L 17.0743 11.4061C 17.0743 12.1927 17.1836 12.9138 17.4021 13.5693C 17.6293 14.2248 17.9527 14.7886 18.3723 15.2606C 18.8005 15.7325 19.3206 16.104 19.9324 16.375C 20.553 16.6372 21.2522 16.7683 22.0301 16.7683Z"/>
<path id="path10_fill" d="M 35.1922 0C 35.4194 0 35.5855 0.0305911 35.6904 0.0917732C 35.804 0.144215 35.9307 0.257839 36.0706 0.432645L 46.9522 14.5919C 46.926 14.3647 46.9085 14.1462 46.8998 13.9364C 46.891 13.7179 46.8867 13.5081 46.8867 13.3071L 46.8867 0L 49.1155 0L 49.1155 18.7873L 47.8306 18.7873C 47.6296 18.7873 47.4592 18.7523 47.3193 18.6824C 47.1882 18.6125 47.0571 18.4945 46.926 18.3284L 36.0574 4.18224C 36.0749 4.40074 36.088 4.61488 36.0968 4.82465C 36.1055 5.03442 36.1099 5.2267 36.1099 5.40151L 36.1099 18.7873L 33.8811 18.7873L 33.8811 0L 35.1922 0Z"/>
<path id="path11_fill" d="M 69.1577 18.7873L 67.1911 18.7873C 66.9638 18.7873 66.7803 18.7305 66.6405 18.6168C 66.5006 18.5032 66.3957 18.359 66.3258 18.1842L 64.569 13.648L 56.139 13.648L 54.3822 18.1842C 54.321 18.3415 54.2161 18.4814 54.0675 18.6037C 53.9189 18.7261 53.7354 18.7873 53.5169 18.7873L 51.5503 18.7873L 59.0626 0L 61.6454 0L 69.1577 18.7873ZM 56.8469 11.8125L 63.861 11.8125L 60.9112 4.16913C 60.7189 3.69715 60.531 3.10718 60.3474 2.39921C 60.2513 2.75757 60.1551 3.0897 60.059 3.39561C 59.9716 3.69278 59.8842 3.95499 59.7968 4.18224L 56.8469 11.8125Z"/>
<path id="path12_fill" d="M 74.315 10.9472L 74.315 18.7873L 71.7847 18.7873L 71.7847 0L 77.0944 0C 78.2831 0 79.3101 0.122364 80.1754 0.367093C 81.0406 0.603081 81.753 0.948323 82.3124 1.40282C 82.8805 1.85731 83.3 2.40795 83.571 3.05474C 83.8419 3.69278 83.9774 4.40948 83.9774 5.20485C 83.9774 5.86911 83.8725 6.48968 83.6627 7.06654C 83.453 7.6434 83.1471 8.16344 82.745 8.62668C 82.3517 9.08118 81.8666 9.47012 81.2897 9.79351C 80.7216 10.1169 80.0748 10.3616 79.3494 10.5277C 79.6641 10.7112 79.9437 10.9778 80.1885 11.3274L 85.6686 18.7873L 83.4136 18.7873C 82.9504 18.7873 82.6095 18.6081 82.391 18.2498L 77.5139 11.5372C 77.3653 11.3274 77.2037 11.1788 77.0288 11.0914C 76.854 10.9953 76.5918 10.9472 76.2422 10.9472L 74.315 10.9472ZM 74.315 9.09866L 76.9764 9.09866C 77.7193 9.09866 78.3705 9.01125 78.9299 8.83645C 79.498 8.6529 79.97 8.39943 80.3458 8.07604C 80.7304 7.74391 81.0188 7.3506 81.2111 6.8961C 81.4034 6.4416 81.4995 5.93904 81.4995 5.3884C 81.4995 4.26964 81.1281 3.4262 80.3851 2.85808C 79.6509 2.28996 78.554 2.0059 77.0944 2.0059L 74.315 2.0059L 74.315 9.09866Z"/>
<path id="path13_fill" d="M 0 28.767L 1.62045 28.767L 1.62045 39.764L 0 39.764L 0 28.767Z"/>
<path id="path14_fill" d="M 18.6179 40C 17.4851 40 16.4782 39.764 15.5972 39.292C 14.7162 38.8201 14.0292 38.154 13.5363 37.294C 13.0433 36.4235 12.7968 35.4166 12.7968 34.2734C 12.7968 33.1301 13.0433 32.1232 13.5363 31.2527C 14.0292 30.3822 14.7162 29.7109 15.5972 29.2389C 16.4782 28.767 17.4851 28.531 18.6179 28.531C 20.1282 28.531 21.392 28.9138 22.4094 29.6795L 22.4094 31.2212C 21.4969 30.4136 20.2803 30.0098 18.7595 30.0098C 17.9099 30.0098 17.1547 30.1829 16.494 30.529C 15.8437 30.8751 15.335 31.3733 14.9679 32.0236C 14.6008 32.6634 14.4173 33.4133 14.4173 34.2734C 14.4173 35.1334 14.6008 35.8886 14.9679 36.5388C 15.3455 37.1891 15.8594 37.6873 16.5097 38.0334C 17.1705 38.3796 17.9204 38.5526 18.7595 38.5526C 19.5356 38.5526 20.2278 38.453 20.8362 38.2537C 21.455 38.0439 22.0266 37.7135 22.551 37.2625L 22.551 38.8201C 21.6071 39.6067 20.296 40 18.6179 40Z"/>
<path id="path15_fill" d="M 38.796 40C 37.7052 40 36.7193 39.764 35.8383 39.292C 34.9572 38.8096 34.265 38.1331 33.7616 37.2625C 33.2581 36.392 33.0064 35.3956 33.0064 34.2734C 33.0064 33.1511 33.2581 32.1547 33.7616 31.2842C 34.265 30.4136 34.9572 29.7371 35.8383 29.2547C 36.7193 28.7722 37.7052 28.531 38.796 28.531C 39.8868 28.531 40.8727 28.7722 41.7537 29.2547C 42.6347 29.7371 43.3269 30.4136 43.8304 31.2842C 44.3338 32.1547 44.5855 33.1511 44.5855 34.2734C 44.5855 35.3956 44.3338 36.392 43.8304 37.2625C 43.3269 38.1331 42.6347 38.8096 41.7537 39.292C 40.8727 39.764 39.8868 40 38.796 40ZM 38.796 38.5526C 39.5721 38.5526 40.2748 38.3796 40.9041 38.0334C 41.5439 37.6768 42.0474 37.1786 42.4145 36.5388C 42.7816 35.8886 42.9651 35.1334 42.9651 34.2734C 42.9651 33.4238 42.7816 32.6791 42.4145 32.0393C 42.0579 31.3891 41.5649 30.8909 40.9356 30.5447C 40.3063 30.1881 39.6036 30.0098 38.8274 30.0098C 38.0408 30.0098 37.3276 30.1829 36.6878 30.529C 36.0585 30.8751 35.5551 31.3733 35.1775 32.0236C 34.8104 32.6739 34.6268 33.4238 34.6268 34.2734C 34.6268 35.1334 34.8104 35.8886 35.1775 36.5388C 35.5446 37.1786 36.0428 37.6768 36.6721 38.0334C 37.3119 38.3796 38.0198 38.5526 38.796 38.5526Z"/>
<path id="path16_fill" d="M 55.7584 28.767L 57.2844 28.767L 62.8852 37.058L 62.8852 28.767L 64.5057 28.767L 64.5057 39.764L 62.9639 39.764L 57.3631 31.473L 57.3631 39.764L 55.7584 39.764L 55.7584 28.767Z"/>
<path id="path17_fill" d="M 79.0354 40C 78.4061 40 77.782 39.9423 77.1632 39.8269C 76.5549 39.7221 76.0567 39.5752 75.6686 39.3864L 75.6686 37.939C 76.6755 38.411 77.7611 38.647 78.9253 38.647C 80.5615 38.647 81.3796 38.0964 81.3796 36.9951C 81.3796 36.6175 81.2904 36.3133 81.1121 36.0826C 80.9338 35.8519 80.6768 35.6526 80.3412 35.4848C 80.0056 35.3065 79.4602 35.0652 78.705 34.7611C 77.6667 34.3415 76.9168 33.88 76.4553 33.3766C 75.9938 32.8732 75.763 32.2386 75.763 31.473C 75.763 30.8961 75.9204 30.3874 76.235 29.9469C 76.5497 29.4959 76.9902 29.1498 77.5565 28.9086C 78.1229 28.6568 78.7732 28.531 79.5074 28.531C 80.1052 28.531 80.6454 28.5782 81.1278 28.6726C 81.6103 28.767 82.0823 28.919 82.5438 29.1288L 82.5438 30.5133C 81.6313 30.1042 80.7083 29.8997 79.7748 29.8997C 79.0197 29.8997 78.4428 30.0361 78.0443 30.3088C 77.6457 30.5815 77.4464 30.9695 77.4464 31.473C 77.4464 31.8191 77.5303 32.1128 77.6981 32.354C 77.8764 32.5847 78.1334 32.7945 78.469 32.9833C 78.8152 33.1616 79.3238 33.3871 79.9951 33.6598C 80.7398 33.9639 81.3271 34.2524 81.7571 34.5251C 82.1872 34.7978 82.5123 35.1334 82.7326 35.532C 82.9633 35.92 83.0787 36.4077 83.0787 36.9951C 83.0787 37.9495 82.7378 38.689 82.0561 39.2134C 81.3743 39.7378 80.3674 40 79.0354 40Z"/>
</defs>
</svg>
